<svg xmlns="http://www.w3.org/2000/svg" viewBox="0 0 800 640" preserveAspectRatio="xMaxYMax meet" fill="none">
<!-- Original artwork for US UK Accountants Ltd: "Transatlantic Skyline" (hand-authored vector). No third-party imagery. -->
<defs>
<linearGradient id="stone" x1="0" y1="0" x2="1" y2="1"><stop offset="0" stop-color="#34487A"/><stop offset=".55" stop-color="#22335F"/><stop offset="1" stop-color="#131F44"/></linearGradient>
<linearGradient id="stoneLit" x1="0" y1="0" x2="1" y2=".4"><stop offset="0" stop-color="#2B3D6C"/><stop offset=".6" stop-color="#3E5285"/><stop offset="1" stop-color="#6A6E7E"/></linearGradient>
<linearGradient id="column" x1="0" y1="0" x2="1" y2="0"><stop offset="0" stop-color="#1E2D57"/><stop offset=".6" stop-color="#3A4E80"/><stop offset="1" stop-color="#7C7A78"/></linearGradient>
<radialGradient id="dome" cx=".72" cy=".3" r=".9"><stop offset="0" stop-color="#8A8474"/><stop offset=".35" stop-color="#43578A"/><stop offset="1" stop-color="#1A2850"/></radialGradient>
<linearGradient id="haze" x1="0" y1="0" x2="0" y2="1"><stop offset="0" stop-color="#2A3B68"/><stop offset="1" stop-color="#1A2851"/></linearGradient>
<linearGradient id="far" x1="0" y1="0" x2="0" y2="1"><stop offset="0" stop-color="#1F2E5B"/><stop offset="1" stop-color="#15224A"/></linearGradient>
<linearGradient id="rim" x1="0" y1="0" x2="0" y2="1"><stop offset="0" stop-color="#F1DFA6"/><stop offset="1" stop-color="#E2CE92" stop-opacity=".35"/></linearGradient>
<linearGradient id="mist" x1="0" y1="0" x2="0" y2="1"><stop offset="0" stop-color="#0A1330" stop-opacity="0"/><stop offset=".6" stop-color="#1B2A52" stop-opacity=".45"/><stop offset="1" stop-color="#0A1330" stop-opacity=".9"/></linearGradient>
<radialGradient id="glow" cx="470" cy="560" r="480" gradientUnits="userSpaceOnUse"><stop offset="0" stop-color="#C9A84C" stop-opacity=".22"/><stop offset=".45" stop-color="#8D7A55" stop-opacity=".08"/><stop offset="1" stop-color="#0A1330" stop-opacity="0"/></radialGradient>
</defs>
<rect width="800" height="640" fill="url(#glow)"/>
<g><path d="M0 640V560.8H6.7V526.8H26.9V560.8H33.7V582H40.1V557.1H59.4V582H65.9V588Q82.1 557.6 98.2 588H98.2V608.5H118.9H118.9V575.3L139.2 547.6L159.5 575.3H159.5V558.2L182.3 523.2L205 558.2H205V615.7H240.3H240.3V615.2L256.7 604.6L273.1 615.2H273.1V620.4Q285.5 608.9 297.8 620.4H297.8V565.9H303.9V534.2H322.1V565.9H328.2V587.5H335.4V565H356.9V587.5H364.1V609.7H394.9H394.9V581.9H440.8H440.8V612.1H467.6H467.6V580.6Q477.6 546 487.6 580.6H487.6V594.6H495.9V575.2H520.9V594.6H529.3V623.5H571H571V596.6Q592.8 571.3 614.5 596.6H614.5V619.9H643.6H643.6V610.1H683.4H683.4V558.3L697.1 523.2L710.7 558.3H710.7V611.3H732H732V568.8L741.9 538.3L751.7 568.8H751.7V590.8L768.5 569.7L785.4 590.8H785.4V614.9Q804.6 600.3 823.9 614.9H823.9V640Z" fill="url(#far)"/></g>
<g><path d="M652 640V417.4H660.6V290.2H669.3V200.1H678.9V141.8H688.5V110H711.5V141.8H721.1V200.1H730.7V290.2H739.4V417.4H748V640Z" fill="url(#haze)"/><path d="M698 110L700 57L702 110Z" fill="url(#haze)"/><path d="M207 640V509.8H213.8V435.4H220.7V382.7H228.3V348.6H235.9V330H254.1V348.6H261.7V382.7H269.3V435.4H276.2V509.8H283V640Z" fill="url(#far)"/><path d="M243 330L245 299L247 330Z" fill="url(#far)"/></g>
<g><path d="M430 640V536H660V640Z" fill="url(#stone)"/><path d="M427 640V532L430 510L433 532V640Z" fill="url(#stone)"/><path d="M465.3 640V532L468.3 510L471.3 532V640Z" fill="url(#stone)"/><path d="M503.7 640V532L506.7 510L509.7 532V640Z" fill="url(#stone)"/><path d="M542 640V532L545 510L548 532V640Z" fill="url(#stone)"/><path d="M580.3 640V532L583.3 510L586.3 532V640Z" fill="url(#stone)"/><path d="M618.7 640V532L621.7 510L624.7 532V640Z" fill="url(#stone)"/><path d="M657 640V532L660 510L663 532V640Z" fill="url(#stone)"/><path d="M509 640V156.6H601V640Z" fill="url(#stone)"/><path d="M509 640V156.6h16.6V640Z" fill="#0E1838"/><path d="M504 156.6V138.6L509 69.2L514 138.6V156.6Z" fill="url(#stone)"/><path d="M596 156.6V138.6L601 69.2L606 138.6V156.6Z" fill="url(#stone)"/><path d="M517 156.6L555 60L593 156.6Z" fill="url(#stoneLit)"/><path d="M157.5 640V634H442.5V640Z" fill="url(#stone)"/><path d="M164.2 634V629H435.9V634Z" fill="url(#stone)"/><path d="M170.8 629V624H429.2V629Z" fill="url(#stone)"/><path d="M170.8 624.8V536.4H429.2V624.8Z" fill="#0F1A3C"/><path d="M180.3 624.8L181.1 550.7H188.1L188.9 624.8Z" fill="url(#column)"/><path d="M206 624.8L206.8 550.7H213.7L214.5 624.8Z" fill="url(#column)"/><path d="M231.6 624.8L232.4 550.7H239.4L240.2 624.8Z" fill="url(#column)"/><path d="M257.2 624.8L258.1 550.7H265L265.8 624.8Z" fill="url(#column)"/><path d="M282.9 624.8L283.7 550.7H290.6L291.4 624.8Z" fill="url(#column)"/><path d="M308.6 624.8L309.4 550.7H316.3L317.1 624.8Z" fill="url(#column)"/><path d="M334.2 624.8L335 550.7H341.9L342.8 624.8Z" fill="url(#column)"/><path d="M359.9 624.8L360.7 550.7H367.6L368.4 624.8Z" fill="url(#column)"/><path d="M385.5 624.8L386.3 550.7H393.2L394.1 624.8Z" fill="url(#column)"/><path d="M411.1 624.8L411.9 550.7H418.9L419.7 624.8Z" fill="url(#column)"/><path d="M167 550.7V536.4H433V550.7Z" fill="url(#stoneLit)"/><path d="M224 536.4L300 502.2L376 536.4Z" fill="url(#stoneLit)"/><path d="M254.4 506.2V473.7H345.6V506.2Z" fill="url(#stone)"/><path d="M257.2 473.7C257.2 446.4 282.9 433.1 300 433.1C317.1 433.1 342.8 446.4 342.8 473.7Z" fill="url(#dome)"/><path d="M293.8 435.1V417.9H306.2V435.1Z" fill="url(#stoneLit)"/><path d="M291.8 417.9Q300 408.4 308.2 417.9Z" fill="url(#stoneLit)"/><path d="M98.6 640V590.6H157.5V640Z" fill="url(#stone)"/><path d="M442.5 640V590.6H501.4V640Z" fill="url(#stone)"/></g>
<g><rect x="654" y="430.4" width="2.2" height="3.2" fill="#F3E2AE" fill-opacity="0.36"/><rect x="654" y="529.4" width="2.2" height="3.2" fill="#F3E2AE" fill-opacity="0.55"/><rect x="654" y="583.4" width="2.2" height="3.2" fill="#F3E2AE" fill-opacity="0.25"/><rect x="661.5" y="466.4" width="2.2" height="3.2" fill="#F3E2AE" fill-opacity="0.52"/><rect x="661.5" y="565.4" width="2.2" height="3.2" fill="#F3E2AE" fill-opacity="0.23"/><rect x="669" y="439.4" width="2.2" height="3.2" fill="#F3E2AE" fill-opacity="0.30"/><rect x="669" y="502.4" width="2.2" height="3.2" fill="#F3E2AE" fill-opacity="0.31"/><rect x="669" y="520.4" width="2.2" height="3.2" fill="#F3E2AE" fill-opacity="0.28"/><rect x="669" y="547.4" width="2.2" height="3.2" fill="#F3E2AE" fill-opacity="0.34"/><rect x="669" y="601.4" width="2.2" height="3.2" fill="#F3E2AE" fill-opacity="0.23"/><rect x="669" y="610.4" width="2.2" height="3.2" fill="#F3E2AE" fill-opacity="0.52"/><rect x="676.5" y="421.4" width="2.2" height="3.2" fill="#F3E2AE" fill-opacity="0.43"/><rect x="676.5" y="466.4" width="2.2" height="3.2" fill="#F3E2AE" fill-opacity="0.40"/><rect x="684" y="421.4" width="2.2" height="3.2" fill="#F3E2AE" fill-opacity="0.43"/><rect x="684" y="502.4" width="2.2" height="3.2" fill="#F3E2AE" fill-opacity="0.47"/><rect x="684" y="511.4" width="2.2" height="3.2" fill="#F3E2AE" fill-opacity="0.42"/><rect x="684" y="583.4" width="2.2" height="3.2" fill="#F3E2AE" fill-opacity="0.32"/><rect x="691.5" y="529.4" width="2.2" height="3.2" fill="#F3E2AE" fill-opacity="0.38"/><rect x="699" y="466.4" width="2.2" height="3.2" fill="#F3E2AE" fill-opacity="0.23"/><rect x="699" y="484.4" width="2.2" height="3.2" fill="#F3E2AE" fill-opacity="0.45"/><rect x="699" y="520.4" width="2.2" height="3.2" fill="#F3E2AE" fill-opacity="0.26"/><rect x="699" y="538.4" width="2.2" height="3.2" fill="#F3E2AE" fill-opacity="0.49"/><rect x="699" y="556.4" width="2.2" height="3.2" fill="#F3E2AE" fill-opacity="0.24"/><rect x="706.5" y="439.4" width="2.2" height="3.2" fill="#F3E2AE" fill-opacity="0.38"/><rect x="706.5" y="547.4" width="2.2" height="3.2" fill="#F3E2AE" fill-opacity="0.53"/><rect x="706.5" y="565.4" width="2.2" height="3.2" fill="#F3E2AE" fill-opacity="0.37"/><rect x="714" y="574.4" width="2.2" height="3.2" fill="#F3E2AE" fill-opacity="0.37"/><rect x="714" y="610.4" width="2.2" height="3.2" fill="#F3E2AE" fill-opacity="0.49"/><rect x="714" y="619.4" width="2.2" height="3.2" fill="#F3E2AE" fill-opacity="0.48"/><rect x="721.5" y="439.4" width="2.2" height="3.2" fill="#F3E2AE" fill-opacity="0.27"/><rect x="721.5" y="511.4" width="2.2" height="3.2" fill="#F3E2AE" fill-opacity="0.29"/><rect x="729" y="484.4" width="2.2" height="3.2" fill="#F3E2AE" fill-opacity="0.54"/><rect x="729" y="547.4" width="2.2" height="3.2" fill="#F3E2AE" fill-opacity="0.40"/><rect x="729" y="601.4" width="2.2" height="3.2" fill="#F3E2AE" fill-opacity="0.36"/><rect x="736.5" y="457.4" width="2.2" height="3.2" fill="#F3E2AE" fill-opacity="0.48"/><rect x="736.5" y="466.4" width="2.2" height="3.2" fill="#F3E2AE" fill-opacity="0.28"/><rect x="736.5" y="520.4" width="2.2" height="3.2" fill="#F3E2AE" fill-opacity="0.46"/><rect x="736.5" y="529.4" width="2.2" height="3.2" fill="#F3E2AE" fill-opacity="0.39"/><rect x="736.5" y="601.4" width="2.2" height="3.2" fill="#F3E2AE" fill-opacity="0.29"/><rect x="744" y="538.4" width="2.2" height="3.2" fill="#F3E2AE" fill-opacity="0.30"/><rect x="744" y="565.4" width="2.2" height="3.2" fill="#F3E2AE" fill-opacity="0.49"/><rect x="744" y="592.4" width="2.2" height="3.2" fill="#F3E2AE" fill-opacity="0.35"/><rect x="744" y="610.4" width="2.2" height="3.2" fill="#F3E2AE" fill-opacity="0.29"/><rect x="662.6" y="303.2" width="2.2" height="3.2" fill="#F3E2AE" fill-opacity="0.39"/><rect x="662.6" y="348.2" width="2.2" height="3.2" fill="#F3E2AE" fill-opacity="0.26"/><rect x="662.6" y="357.2" width="2.2" height="3.2" fill="#F3E2AE" fill-opacity="0.40"/><rect x="662.6" y="384.2" width="2.2" height="3.2" fill="#F3E2AE" fill-opacity="0.28"/><rect x="669.9" y="303.2" width="2.2" height="3.2" fill="#F3E2AE" fill-opacity="0.24"/><rect x="669.9" y="384.2" width="2.2" height="3.2" fill="#F3E2AE" fill-opacity="0.45"/><rect x="677.2" y="339.2" width="2.2" height="3.2" fill="#F3E2AE" fill-opacity="0.51"/><rect x="691.7" y="294.2" width="2.2" height="3.2" fill="#F3E2AE" fill-opacity="0.33"/><rect x="691.7" y="312.2" width="2.2" height="3.2" fill="#F3E2AE" fill-opacity="0.34"/><rect x="699" y="330.2" width="2.2" height="3.2" fill="#F3E2AE" fill-opacity="0.42"/><rect x="699" y="366.2" width="2.2" height="3.2" fill="#F3E2AE" fill-opacity="0.28"/><rect x="699" y="384.2" width="2.2" height="3.2" fill="#F3E2AE" fill-opacity="0.30"/><rect x="706.3" y="339.2" width="2.2" height="3.2" fill="#F3E2AE" fill-opacity="0.42"/><rect x="706.3" y="357.2" width="2.2" height="3.2" fill="#F3E2AE" fill-opacity="0.53"/><rect x="706.3" y="366.2" width="2.2" height="3.2" fill="#F3E2AE" fill-opacity="0.38"/><rect x="706.3" y="402.2" width="2.2" height="3.2" fill="#F3E2AE" fill-opacity="0.53"/><rect x="713.5" y="375.2" width="2.2" height="3.2" fill="#F3E2AE" fill-opacity="0.30"/><rect x="713.5" y="384.2" width="2.2" height="3.2" fill="#F3E2AE" fill-opacity="0.27"/><rect x="720.8" y="303.2" width="2.2" height="3.2" fill="#F3E2AE" fill-opacity="0.55"/><rect x="720.8" y="321.2" width="2.2" height="3.2" fill="#F3E2AE" fill-opacity="0.52"/><rect x="728.1" y="303.2" width="2.2" height="3.2" fill="#F3E2AE" fill-opacity="0.43"/><rect x="728.1" y="330.2" width="2.2" height="3.2" fill="#F3E2AE" fill-opacity="0.39"/><rect x="728.1" y="339.2" width="2.2" height="3.2" fill="#F3E2AE" fill-opacity="0.37"/><rect x="735.4" y="321.2" width="2.2" height="3.2" fill="#F3E2AE" fill-opacity="0.51"/><rect x="671.3" y="240.1" width="2.2" height="3.2" fill="#F3E2AE" fill-opacity="0.24"/><rect x="671.3" y="276.1" width="2.2" height="3.2" fill="#F3E2AE" fill-opacity="0.40"/><rect x="671.3" y="285.1" width="2.2" height="3.2" fill="#F3E2AE" fill-opacity="0.25"/><rect x="679.2" y="285.1" width="2.2" height="3.2" fill="#F3E2AE" fill-opacity="0.26"/><rect x="695" y="258.1" width="2.2" height="3.2" fill="#F3E2AE" fill-opacity="0.51"/><rect x="695" y="267.1" width="2.2" height="3.2" fill="#F3E2AE" fill-opacity="0.25"/><rect x="703" y="231.1" width="2.2" height="3.2" fill="#F3E2AE" fill-opacity="0.29"/><rect x="703" y="249.1" width="2.2" height="3.2" fill="#F3E2AE" fill-opacity="0.32"/><rect x="703" y="285.1" width="2.2" height="3.2" fill="#F3E2AE" fill-opacity="0.34"/><rect x="710.9" y="222.1" width="2.2" height="3.2" fill="#F3E2AE" fill-opacity="0.45"/><rect x="680.9" y="145.8" width="2.2" height="3.2" fill="#F3E2AE" fill-opacity="0.39"/><rect x="688.1" y="145.8" width="2.2" height="3.2" fill="#F3E2AE" fill-opacity="0.40"/><rect x="688.1" y="163.8" width="2.2" height="3.2" fill="#F3E2AE" fill-opacity="0.25"/><rect x="688.1" y="190.8" width="2.2" height="3.2" fill="#F3E2AE" fill-opacity="0.43"/><rect x="695.4" y="145.8" width="2.2" height="3.2" fill="#F3E2AE" fill-opacity="0.47"/><rect x="707.5" y="114" width="2.2" height="3.2" fill="#F3E2AE" fill-opacity="0.46"/><rect x="209" y="558.8" width="2.2" height="3.2" fill="#F3E2AE" fill-opacity="0.16"/><rect x="209" y="567.8" width="2.2" height="3.2" fill="#F3E2AE" fill-opacity="0.22"/><rect x="209" y="594.8" width="2.2" height="3.2" fill="#F3E2AE" fill-opacity="0.19"/><rect x="209" y="621.8" width="2.2" height="3.2" fill="#F3E2AE" fill-opacity="0.13"/><rect x="224.6" y="576.8" width="2.2" height="3.2" fill="#F3E2AE" fill-opacity="0.27"/><rect x="232.3" y="531.8" width="2.2" height="3.2" fill="#F3E2AE" fill-opacity="0.19"/><rect x="232.3" y="576.8" width="2.2" height="3.2" fill="#F3E2AE" fill-opacity="0.14"/><rect x="240.1" y="531.8" width="2.2" height="3.2" fill="#F3E2AE" fill-opacity="0.24"/><rect x="240.1" y="540.8" width="2.2" height="3.2" fill="#F3E2AE" fill-opacity="0.25"/><rect x="240.1" y="567.8" width="2.2" height="3.2" fill="#F3E2AE" fill-opacity="0.16"/><rect x="240.1" y="585.8" width="2.2" height="3.2" fill="#F3E2AE" fill-opacity="0.19"/><rect x="247.9" y="540.8" width="2.2" height="3.2" fill="#F3E2AE" fill-opacity="0.25"/><rect x="247.9" y="576.8" width="2.2" height="3.2" fill="#F3E2AE" fill-opacity="0.25"/><rect x="247.9" y="603.8" width="2.2" height="3.2" fill="#F3E2AE" fill-opacity="0.16"/><rect x="255.7" y="522.8" width="2.2" height="3.2" fill="#F3E2AE" fill-opacity="0.18"/><rect x="255.7" y="567.8" width="2.2" height="3.2" fill="#F3E2AE" fill-opacity="0.18"/><rect x="255.7" y="612.8" width="2.2" height="3.2" fill="#F3E2AE" fill-opacity="0.28"/><rect x="271.2" y="540.8" width="2.2" height="3.2" fill="#F3E2AE" fill-opacity="0.14"/><rect x="271.2" y="549.8" width="2.2" height="3.2" fill="#F3E2AE" fill-opacity="0.23"/><rect x="271.2" y="603.8" width="2.2" height="3.2" fill="#F3E2AE" fill-opacity="0.15"/><rect x="271.2" y="612.8" width="2.2" height="3.2" fill="#F3E2AE" fill-opacity="0.13"/><rect x="271.2" y="630.8" width="2.2" height="3.2" fill="#F3E2AE" fill-opacity="0.27"/><rect x="279" y="585.8" width="2.2" height="3.2" fill="#F3E2AE" fill-opacity="0.18"/><rect x="215.8" y="439.4" width="2.2" height="3.2" fill="#F3E2AE" fill-opacity="0.17"/><rect x="215.8" y="466.4" width="2.2" height="3.2" fill="#F3E2AE" fill-opacity="0.18"/><rect x="223.9" y="439.4" width="2.2" height="3.2" fill="#F3E2AE" fill-opacity="0.24"/><rect x="223.9" y="484.4" width="2.2" height="3.2" fill="#F3E2AE" fill-opacity="0.23"/><rect x="231.9" y="493.4" width="2.2" height="3.2" fill="#F3E2AE" fill-opacity="0.15"/><rect x="240" y="484.4" width="2.2" height="3.2" fill="#F3E2AE" fill-opacity="0.28"/><rect x="240" y="493.4" width="2.2" height="3.2" fill="#F3E2AE" fill-opacity="0.26"/><rect x="248" y="502.4" width="2.2" height="3.2" fill="#F3E2AE" fill-opacity="0.25"/><rect x="256.1" y="502.4" width="2.2" height="3.2" fill="#F3E2AE" fill-opacity="0.12"/><rect x="272.2" y="457.4" width="2.2" height="3.2" fill="#F3E2AE" fill-opacity="0.15"/><rect x="272.2" y="475.4" width="2.2" height="3.2" fill="#F3E2AE" fill-opacity="0.18"/><rect x="222.7" y="422.7" width="2.2" height="3.2" fill="#F3E2AE" fill-opacity="0.22"/><rect x="231.2" y="386.7" width="2.2" height="3.2" fill="#F3E2AE" fill-opacity="0.27"/><rect x="265.3" y="395.7" width="2.2" height="3.2" fill="#F3E2AE" fill-opacity="0.23"/><rect x="239.4" y="352.6" width="2.2" height="3.2" fill="#F3E2AE" fill-opacity="0.13"/><rect x="248.6" y="361.6" width="2.2" height="3.2" fill="#F3E2AE" fill-opacity="0.23"/><rect x="237.9" y="343" width="2.2" height="3.2" fill="#F3E2AE" fill-opacity="0.27"/><rect x="560.5" y="591.1" width="7.4" height="8" fill="#F3E2AE" fill-opacity="0.39"/><rect x="637.1" y="590.2" width="7.4" height="8" fill="#F3E2AE" fill-opacity="0.26"/><rect x="578.5" y="206.2" width="8.2" height="7" fill="#F3E2AE" fill-opacity="0.38"/><rect x="550.9" y="263" width="8.2" height="7" fill="#F3E2AE" fill-opacity="0.57"/><rect x="578.5" y="375.2" width="8.2" height="7" fill="#F3E2AE" fill-opacity="0.59"/><rect x="578.5" y="526.6" width="8.2" height="7" fill="#F3E2AE" fill-opacity="0.60"/><rect x="550.9" y="587.4" width="8.2" height="7" fill="#F3E2AE" fill-opacity="0.40"/><rect x="194" y="587.7" width="6.8" height="22.2" fill="#F3E2AE" fill-opacity="0.30"/><rect x="245.3" y="587.7" width="6.8" height="22.2" fill="#F3E2AE" fill-opacity="0.25"/><rect x="270.9" y="587.7" width="6.8" height="22.2" fill="#F3E2AE" fill-opacity="0.30"/><rect x="296.6" y="587.7" width="6.8" height="22.2" fill="#F3E2AE" fill-opacity="0.16"/><rect x="347.9" y="587.7" width="6.8" height="22.2" fill="#F3E2AE" fill-opacity="0.30"/><rect x="281.9" y="481.3" width="5.5" height="11.4" fill="#F3E2AE" fill-opacity="0.33"/><rect x="292.2" y="481.3" width="5.5" height="11.4" fill="#F3E2AE" fill-opacity="0.42"/><rect x="312.6" y="481.3" width="5.5" height="11.4" fill="#F3E2AE" fill-opacity="0.37"/><rect x="322.8" y="481.3" width="5.5" height="11.4" fill="#F3E2AE" fill-opacity="0.57"/><rect x="295.8" y="419.8" width="8.3" height="7.6" fill="#F3E2AE" fill-opacity="0.70"/><rect x="108.1" y="605.8" width="6.5" height="20.9" fill="#F3E2AE" fill-opacity="0.56"/><rect x="452.1" y="605.8" width="6.5" height="20.9" fill="#F3E2AE" fill-opacity="0.42"/></g>
<g><path d="M430 536V531h5V536h5V531h5V536h5V531h5V536h5V531h5V536h5V531h5V536h5V531h5V536h5V531h5V536h5V531h5V536h5V531h5V536h5V531h5V536h5V531h5V536h5V531h5V536h5V531h5V536h5V531h5V536h5V531h5V536h5V531h5V536h5V531h5V536h5V531h5V536h5V531h5V536h5V531h5V536h5V531h5V536h5V531h5V536h5V531h5V536h5" stroke="#E2CE92" stroke-opacity="0.35" stroke-width="0.7"/><path d="M440.7 628V564.1Q440.7 554 449.2 547.3Q457.6 554 457.6 564.1V628M449.2 628V554" stroke="#E2CE92" stroke-opacity="0.26" stroke-width="0.6"/><path d="M479.1 628V564.1Q479.1 554 487.5 547.3Q495.9 554 495.9 564.1V628M487.5 628V554" stroke="#E2CE92" stroke-opacity="0.26" stroke-width="0.6"/><path d="M517.4 628V564.1Q517.4 554 525.8 547.3Q534.3 554 534.3 564.1V628M525.8 628V554" stroke="#E2CE92" stroke-opacity="0.26" stroke-width="0.6"/><path d="M555.7 628V564.1Q555.7 554 564.2 547.3Q572.6 554 572.6 564.1V628M564.2 628V554" stroke="#E2CE92" stroke-opacity="0.26" stroke-width="0.6"/><path d="M594.1 628V564.1Q594.1 554 602.5 547.3Q610.9 554 610.9 564.1V628M602.5 628V554" stroke="#E2CE92" stroke-opacity="0.26" stroke-width="0.6"/><path d="M632.4 628V564.1Q632.4 554 640.8 547.3Q649.3 554 649.3 564.1V628M640.8 628V554" stroke="#E2CE92" stroke-opacity="0.26" stroke-width="0.6"/><path d="M506 237.2h98" stroke="#E2CE92" stroke-opacity="0.4" stroke-width="0.8"/><path d="M506 317.7h98" stroke="#E2CE92" stroke-opacity="0.4" stroke-width="0.8"/><path d="M506 398.3h98" stroke="#E2CE92" stroke-opacity="0.4" stroke-width="0.8"/><path d="M506 478.9h98" stroke="#E2CE92" stroke-opacity="0.4" stroke-width="0.8"/><path d="M506 559.4h98" stroke="#E2CE92" stroke-opacity="0.4" stroke-width="0.8"/><path d="M520 231.2V179.3Q520 164.6 527.4 155.8Q534.8 164.6 534.8 179.3V231.2" stroke="#E2CE92" stroke-opacity="0.28" stroke-width="0.6"/><path d="M547.6 231.2V179.3Q547.6 164.6 555 155.8Q562.4 164.6 562.4 179.3V231.2" stroke="#E2CE92" stroke-opacity="0.28" stroke-width="0.6"/><path d="M575.2 231.2V179.3Q575.2 164.6 582.6 155.8Q590 164.6 590 179.3V231.2" stroke="#E2CE92" stroke-opacity="0.28" stroke-width="0.6"/><path d="M520 311.7V259.9Q520 245.2 527.4 236.3Q534.8 245.2 534.8 259.9V311.7" stroke="#E2CE92" stroke-opacity="0.28" stroke-width="0.6"/><path d="M547.6 311.7V259.9Q547.6 245.2 555 236.3Q562.4 245.2 562.4 259.9V311.7" stroke="#E2CE92" stroke-opacity="0.28" stroke-width="0.6"/><path d="M575.2 311.7V259.9Q575.2 245.2 582.6 236.3Q590 245.2 590 259.9V311.7" stroke="#E2CE92" stroke-opacity="0.28" stroke-width="0.6"/><path d="M520 392.3V340.5Q520 325.7 527.4 316.9Q534.8 325.7 534.8 340.5V392.3" stroke="#E2CE92" stroke-opacity="0.28" stroke-width="0.6"/><path d="M547.6 392.3V340.5Q547.6 325.7 555 316.9Q562.4 325.7 562.4 340.5V392.3" stroke="#E2CE92" stroke-opacity="0.28" stroke-width="0.6"/><path d="M575.2 392.3V340.5Q575.2 325.7 582.6 316.9Q590 325.7 590 340.5V392.3" stroke="#E2CE92" stroke-opacity="0.28" stroke-width="0.6"/><path d="M520 472.9V421Q520 406.3 527.4 397.5Q534.8 406.3 534.8 421V472.9" stroke="#E2CE92" stroke-opacity="0.28" stroke-width="0.6"/><path d="M547.6 472.9V421Q547.6 406.3 555 397.5Q562.4 406.3 562.4 421V472.9" stroke="#E2CE92" stroke-opacity="0.28" stroke-width="0.6"/><path d="M575.2 472.9V421Q575.2 406.3 582.6 397.5Q590 406.3 590 421V472.9" stroke="#E2CE92" stroke-opacity="0.28" stroke-width="0.6"/><path d="M520 553.4V501.6Q520 486.9 527.4 478Q534.8 486.9 534.8 501.6V553.4" stroke="#E2CE92" stroke-opacity="0.28" stroke-width="0.6"/><path d="M547.6 553.4V501.6Q547.6 486.9 555 478Q562.4 486.9 562.4 501.6V553.4" stroke="#E2CE92" stroke-opacity="0.28" stroke-width="0.6"/><path d="M575.2 553.4V501.6Q575.2 486.9 582.6 478Q590 486.9 590 501.6V553.4" stroke="#E2CE92" stroke-opacity="0.28" stroke-width="0.6"/><path d="M520 634V582.2Q520 567.4 527.4 558.6Q534.8 567.4 534.8 582.2V634" stroke="#E2CE92" stroke-opacity="0.28" stroke-width="0.6"/><path d="M547.6 634V582.2Q547.6 567.4 555 558.6Q562.4 567.4 562.4 582.2V634" stroke="#E2CE92" stroke-opacity="0.28" stroke-width="0.6"/><path d="M575.2 634V582.2Q575.2 567.4 582.6 558.6Q590 567.4 590 582.2V634" stroke="#E2CE92" stroke-opacity="0.28" stroke-width="0.6"/><path d="M529.2 166.6h51.5" stroke="#E2CE92" stroke-opacity="0.35" stroke-width="0.7"/><path d="M529.2 172.6h51.5" stroke="#E2CE92" stroke-opacity="0.35" stroke-width="0.7"/><path d="M529.2 178.6h51.5" stroke="#E2CE92" stroke-opacity="0.35" stroke-width="0.7"/><path d="M529.2 184.6h51.5" stroke="#E2CE92" stroke-opacity="0.35" stroke-width="0.7"/><path d="M523.3 140.5l3 -4M586.7 140.5l-3 -4" stroke="#E2CE92" stroke-opacity="0.45" stroke-width="0.7"/><path d="M529.7 124.4l3 -4M580.3 124.4l-3 -4" stroke="#E2CE92" stroke-opacity="0.45" stroke-width="0.7"/><path d="M536 108.3l3 -4M574 108.3l-3 -4" stroke="#E2CE92" stroke-opacity="0.45" stroke-width="0.7"/><path d="M542.3 92.2l3 -4M567.7 92.2l-3 -4" stroke="#E2CE92" stroke-opacity="0.45" stroke-width="0.7"/><path d="M548.7 76.1l3 -4M561.3 76.1l-3 -4" stroke="#E2CE92" stroke-opacity="0.45" stroke-width="0.7"/><path d="M555 60V44M550 51h10" stroke="#E2CE92" stroke-opacity="0.7" stroke-width="1"/><path d="M178.3 550.7h12.5" stroke="#E2CE92" stroke-opacity="0.5" stroke-width="0.8"/><path d="M204 550.7h12.5" stroke="#E2CE92" stroke-opacity="0.5" stroke-width="0.8"/><path d="M229.6 550.7h12.5" stroke="#E2CE92" stroke-opacity="0.5" stroke-width="0.8"/><path d="M255.2 550.7h12.5" stroke="#E2CE92" stroke-opacity="0.5" stroke-width="0.8"/><path d="M280.9 550.7h12.5" stroke="#E2CE92" stroke-opacity="0.5" stroke-width="0.8"/><path d="M306.6 550.7h12.5" stroke="#E2CE92" stroke-opacity="0.5" stroke-width="0.8"/><path d="M332.2 550.7h12.5" stroke="#E2CE92" stroke-opacity="0.5" stroke-width="0.8"/><path d="M357.9 550.7h12.5" stroke="#E2CE92" stroke-opacity="0.5" stroke-width="0.8"/><path d="M383.5 550.7h12.5" stroke="#E2CE92" stroke-opacity="0.5" stroke-width="0.8"/><path d="M409.1 550.7h12.5" stroke="#E2CE92" stroke-opacity="0.5" stroke-width="0.8"/><path d="M163.2 536.4h273.6M167 541.2h266" stroke="#E2CE92" stroke-opacity="0.55" stroke-width="0.8"/><path d="M233.5 533.6L300 508.9L366.5 533.6Z" stroke="#E2CE92" stroke-opacity="0.35" stroke-width="0.6"/><path d="M259.1 476.7V502.2" stroke="#E2CE92" stroke-opacity="0.3" stroke-width="0.6"/><path d="M269.4 476.7V502.2" stroke="#E2CE92" stroke-opacity="0.3" stroke-width="0.6"/><path d="M279.6 476.7V502.2" stroke="#E2CE92" stroke-opacity="0.3" stroke-width="0.6"/><path d="M289.8 476.7V502.2" stroke="#E2CE92" stroke-opacity="0.3" stroke-width="0.6"/><path d="M300 476.7V502.2" stroke="#E2CE92" stroke-opacity="0.3" stroke-width="0.6"/><path d="M310.2 476.7V502.2" stroke="#E2CE92" stroke-opacity="0.3" stroke-width="0.6"/><path d="M320.4 476.7V502.2" stroke="#E2CE92" stroke-opacity="0.3" stroke-width="0.6"/><path d="M330.6 476.7V502.2" stroke="#E2CE92" stroke-opacity="0.3" stroke-width="0.6"/><path d="M340.8 476.7V502.2" stroke="#E2CE92" stroke-opacity="0.3" stroke-width="0.6"/><path d="M249.7 473.7h100.7" stroke="#E2CE92" stroke-opacity="0.55" stroke-width="0.9"/><path d="M274.4 473.7Q285.9 442.6 300 434.1" stroke="#E2CE92" stroke-opacity="0.35" stroke-width="0.6"/><path d="M287.2 473.7Q292.9 442.6 300 434.1" stroke="#E2CE92" stroke-opacity="0.35" stroke-width="0.6"/><path d="M300 473.7Q300 442.6 300 434.1" stroke="#E2CE92" stroke-opacity="0.35" stroke-width="0.6"/><path d="M312.8 473.7Q307.1 442.6 300 434.1" stroke="#E2CE92" stroke-opacity="0.35" stroke-width="0.6"/><path d="M325.6 473.7Q314.1 442.6 300 434.1" stroke="#E2CE92" stroke-opacity="0.35" stroke-width="0.6"/><path d="M300 410.3V400.8" stroke="#E2CE92" stroke-opacity="0.8" stroke-width="1"/><path d="M96.6 590.6h62.9" stroke="#E2CE92" stroke-opacity="0.5" stroke-width="0.8"/><path d="M107.1 628.6V603.9h8.5V628.6" stroke="#E2CE92" stroke-opacity="0.3" stroke-width="0.6"/><path d="M124.2 628.6V603.9h8.5V628.6" stroke="#E2CE92" stroke-opacity="0.3" stroke-width="0.6"/><path d="M141.3 628.6V603.9h8.5V628.6" stroke="#E2CE92" stroke-opacity="0.3" stroke-width="0.6"/><path d="M440.5 590.6h62.9" stroke="#E2CE92" stroke-opacity="0.5" stroke-width="0.8"/><path d="M451.1 628.6V603.9h8.5V628.6" stroke="#E2CE92" stroke-opacity="0.3" stroke-width="0.6"/><path d="M468.2 628.6V603.9h8.5V628.6" stroke="#E2CE92" stroke-opacity="0.3" stroke-width="0.6"/><path d="M485.2 628.6V603.9h8.5V628.6" stroke="#E2CE92" stroke-opacity="0.3" stroke-width="0.6"/></g>
<g><path d="M711.5 110V141.8H721.1V200.1H730.7V290.2H739.4V417.4H748V640" stroke="url(#rim)" stroke-opacity="0.45" stroke-width="0.9" stroke-linecap="round"/><path d="M254.1 330V348.6H261.7V382.7H269.3V435.4H276.2V509.8H283V640" stroke="url(#rim)" stroke-opacity="0.45" stroke-width="0.9" stroke-linecap="round"/><path d="M430 510L433 532" stroke="url(#rim)" stroke-opacity="0.55" stroke-width="0.8" stroke-linecap="round"/><path d="M468.3 510L471.3 532" stroke="url(#rim)" stroke-opacity="0.55" stroke-width="0.8" stroke-linecap="round"/><path d="M506.7 510L509.7 532" stroke="url(#rim)" stroke-opacity="0.55" stroke-width="0.8" stroke-linecap="round"/><path d="M545 510L548 532" stroke="url(#rim)" stroke-opacity="0.55" stroke-width="0.8" stroke-linecap="round"/><path d="M583.3 510L586.3 532" stroke="url(#rim)" stroke-opacity="0.55" stroke-width="0.8" stroke-linecap="round"/><path d="M621.7 510L624.7 532" stroke="url(#rim)" stroke-opacity="0.55" stroke-width="0.8" stroke-linecap="round"/><path d="M660 510L663 532" stroke="url(#rim)" stroke-opacity="0.55" stroke-width="0.8" stroke-linecap="round"/><path d="M430 536H660" stroke="url(#rim)" stroke-opacity="0.4" stroke-width="0.8" stroke-linecap="round"/><path d="M509 69.2L514 138.6" stroke="url(#rim)" stroke-opacity="0.8" stroke-width="0.9" stroke-linecap="round"/><path d="M601 69.2L606 138.6" stroke="url(#rim)" stroke-opacity="0.8" stroke-width="0.9" stroke-linecap="round"/><path d="M601 640V156.6" stroke="url(#rim)" stroke-opacity="0.85" stroke-width="1.4" stroke-linecap="round"/><path d="M555 60L593 156.6" stroke="url(#rim)" stroke-opacity="0.95" stroke-width="1.2" stroke-linecap="round"/><path d="M188.9 624.8L188.1 550.7" stroke="url(#rim)" stroke-opacity="0.6" stroke-width="0.8" stroke-linecap="round"/><path d="M214.5 624.8L213.7 550.7" stroke="url(#rim)" stroke-opacity="0.6" stroke-width="0.8" stroke-linecap="round"/><path d="M240.2 624.8L239.4 550.7" stroke="url(#rim)" stroke-opacity="0.6" stroke-width="0.8" stroke-linecap="round"/><path d="M265.8 624.8L265 550.7" stroke="url(#rim)" stroke-opacity="0.6" stroke-width="0.8" stroke-linecap="round"/><path d="M291.4 624.8L290.6 550.7" stroke="url(#rim)" stroke-opacity="0.6" stroke-width="0.8" stroke-linecap="round"/><path d="M317.1 624.8L316.3 550.7" stroke="url(#rim)" stroke-opacity="0.6" stroke-width="0.8" stroke-linecap="round"/><path d="M342.8 624.8L341.9 550.7" stroke="url(#rim)" stroke-opacity="0.6" stroke-width="0.8" stroke-linecap="round"/><path d="M368.4 624.8L367.6 550.7" stroke="url(#rim)" stroke-opacity="0.6" stroke-width="0.8" stroke-linecap="round"/><path d="M394.1 624.8L393.2 550.7" stroke="url(#rim)" stroke-opacity="0.6" stroke-width="0.8" stroke-linecap="round"/><path d="M419.7 624.8L418.9 550.7" stroke="url(#rim)" stroke-opacity="0.6" stroke-width="0.8" stroke-linecap="round"/><path d="M163.2 536.4h273.6" stroke="url(#rim)" stroke-opacity="0.7" stroke-width="1" stroke-linecap="round"/><path d="M300 502.2L376 536.4" stroke="url(#rim)" stroke-opacity="0.85" stroke-width="1.1" stroke-linecap="round"/><path d="M300 433.1C317.1 433.1 342.8 446.4 342.8 473.7" stroke="url(#rim)" stroke-opacity="0.95" stroke-width="1.4" stroke-linecap="round"/><path d="M342.8 473.7" stroke="url(#rim)" stroke-opacity="0.4" stroke-width="1" stroke-linecap="round"/><path d="M501.4 640V590.6" stroke="url(#rim)" stroke-opacity="0.6" stroke-width="1" stroke-linecap="round"/></g>
<rect y="540" width="800" height="100" fill="url(#mist)"/></svg>