<svg xmlns="http://www.w3.org/2000/svg" viewBox="0 0 1200 1000" preserveAspectRatio="xMaxYMax meet" fill="none">
<!-- Original artwork for US UK Accountants Ltd: "Transatlantic Skyline" (hand-authored vector). No third-party imagery. -->
<defs>
<linearGradient id="stone" x1="0" y1="0" x2="1" y2="1"><stop offset="0" stop-color="#34487A"/><stop offset=".55" stop-color="#22335F"/><stop offset="1" stop-color="#131F44"/></linearGradient>
<linearGradient id="stoneLit" x1="0" y1="0" x2="1" y2=".4"><stop offset="0" stop-color="#2B3D6C"/><stop offset=".6" stop-color="#3E5285"/><stop offset="1" stop-color="#6A6E7E"/></linearGradient>
<linearGradient id="column" x1="0" y1="0" x2="1" y2="0"><stop offset="0" stop-color="#1E2D57"/><stop offset=".6" stop-color="#3A4E80"/><stop offset="1" stop-color="#7C7A78"/></linearGradient>
<radialGradient id="dome" cx=".72" cy=".3" r=".9"><stop offset="0" stop-color="#8A8474"/><stop offset=".35" stop-color="#43578A"/><stop offset="1" stop-color="#1A2850"/></radialGradient>
<linearGradient id="haze" x1="0" y1="0" x2="0" y2="1"><stop offset="0" stop-color="#2A3B68"/><stop offset="1" stop-color="#1A2851"/></linearGradient>
<linearGradient id="far" x1="0" y1="0" x2="0" y2="1"><stop offset="0" stop-color="#1F2E5B"/><stop offset="1" stop-color="#15224A"/></linearGradient>
<linearGradient id="rim" x1="0" y1="0" x2="0" y2="1"><stop offset="0" stop-color="#F1DFA6"/><stop offset="1" stop-color="#E2CE92" stop-opacity=".35"/></linearGradient>
<linearGradient id="mist" x1="0" y1="0" x2="0" y2="1"><stop offset="0" stop-color="#0A1330" stop-opacity="0"/><stop offset=".6" stop-color="#1B2A52" stop-opacity=".45"/><stop offset="1" stop-color="#0A1330" stop-opacity=".9"/></linearGradient>
<radialGradient id="glow" cx="760" cy="880" r="560" gradientUnits="userSpaceOnUse"><stop offset="0" stop-color="#C9A84C" stop-opacity=".22"/><stop offset=".45" stop-color="#8D7A55" stop-opacity=".08"/><stop offset="1" stop-color="#0A1330" stop-opacity="0"/></radialGradient>
</defs>
<rect width="1200" height="1000" fill="url(#glow)"/>
<g><path d="M300 1000V922.5H304.4V889.3H317.8V922.5H322.2V945L338.7 921.4L355.2 945H355.2V970.8L371.3 958.3L387.4 970.8H387.4V966.6H391.4V952.3H403.4V966.6H407.4V964H415.6V948.6H440.3V964H448.5V913.5Q466.3 863.1 484.1 913.5H484.1V919H513.2H513.2V950.9L534.2 929.9L555.3 950.9H555.3V949.5L565.9 927.8L576.6 949.5H576.6V943.4H599.6H599.6V945.5H628H628V957.5L637.9 939.3L647.7 957.5H647.7V959.9H677.7H677.7V960.8H708.4H708.4V964.3H745.9H745.9V925.2H778.7H778.7V918.7H804.7H804.7V914.1L819.6 877.3L834.4 914.1H834.4V970.7L850.3 958.1L866.1 970.7H866.1V943.9H905.5H905.5V936.4H932.3H932.3V951.1H966.5H966.5V950H1011H1011V936H1030.7H1030.7V928.5H1076.5H1076.5V932.4Q1090.9 892.9 1105.3 932.4H1105.3V960.5L1120.8 943.6L1136.2 960.5H1136.2V913.3L1146.1 876.1L1155.9 913.3H1155.9V943L1168.3 918.5L1180.8 943H1180.8V951.6H1201.1H1201.1V1000Z" fill="url(#far)"/></g>
<g><path d="M1041 1000V668.2H1052.5V478.6H1064V344.3H1076.8V257.4H1089.6V210H1120.4V257.4H1133.2V344.3H1146V478.6H1157.5V668.2H1169V1000Z" fill="url(#haze)"/><path d="M1103 210L1105 131L1107 210Z" fill="url(#haze)"/><path d="M644 1000V815.2H652.3V709.6H660.6V634.8H669.8V586.4H679V560H701V586.4H710.2V634.8H719.4V709.6H727.7V815.2H736V1000Z" fill="url(#far)"/><path d="M688 560L690 516L692 560Z" fill="url(#far)"/></g>
<g><path d="M770 1000V880H1040V1000Z" fill="url(#stone)"/><path d="M767 1000V876L770 854L773 876V1000Z" fill="url(#stone)"/><path d="M805.6 1000V876L808.6 854L811.6 876V1000Z" fill="url(#stone)"/><path d="M844.1 1000V876L847.1 854L850.1 876V1000Z" fill="url(#stone)"/><path d="M882.7 1000V876L885.7 854L888.7 876V1000Z" fill="url(#stone)"/><path d="M921.3 1000V876L924.3 854L927.3 876V1000Z" fill="url(#stone)"/><path d="M959.9 1000V876L962.9 854L965.9 876V1000Z" fill="url(#stone)"/><path d="M998.4 1000V876L1001.4 854L1004.4 876V1000Z" fill="url(#stone)"/><path d="M1037 1000V876L1040 854L1043 876V1000Z" fill="url(#stone)"/><path d="M819 1000V267.6H931V1000Z" fill="url(#stone)"/><path d="M819 1000V267.6h20.2V1000Z" fill="#0E1838"/><path d="M814 267.6V249.6L819 161.2L824 249.6V267.6Z" fill="url(#stone)"/><path d="M926 267.6V249.6L931 161.2L936 249.6V267.6Z" fill="url(#stone)"/><path d="M827 267.6L875 150L923 267.6Z" fill="url(#stoneLit)"/><path d="M467.5 1000V994H752.5V1000Z" fill="url(#stone)"/><path d="M474.1 994V989H745.9V994Z" fill="url(#stone)"/><path d="M480.8 989V984H739.2V989Z" fill="url(#stone)"/><path d="M480.8 984.8V896.4H739.2V984.8Z" fill="#0F1A3C"/><path d="M490.3 984.8L491.1 910.7H498.1L498.9 984.8Z" fill="url(#column)"/><path d="M516 984.8L516.8 910.7H523.7L524.5 984.8Z" fill="url(#column)"/><path d="M541.6 984.8L542.4 910.7H549.4L550.1 984.8Z" fill="url(#column)"/><path d="M567.2 984.8L568 910.7H575L575.8 984.8Z" fill="url(#column)"/><path d="M592.9 984.8L593.7 910.7H600.7L601.5 984.8Z" fill="url(#column)"/><path d="M618.6 984.8L619.4 910.7H626.3L627.1 984.8Z" fill="url(#column)"/><path d="M644.2 984.8L645 910.7H652L652.8 984.8Z" fill="url(#column)"/><path d="M669.9 984.8L670.6 910.7H677.6L678.4 984.8Z" fill="url(#column)"/><path d="M695.5 984.8L696.3 910.7H703.2L704 984.8Z" fill="url(#column)"/><path d="M721.2 984.8L722 910.7H728.9L729.7 984.8Z" fill="url(#column)"/><path d="M477 910.7V896.4H743V910.7Z" fill="url(#stoneLit)"/><path d="M534 896.4L610 862.2L686 896.4Z" fill="url(#stoneLit)"/><path d="M564.4 866.2V833.7H655.6V866.2Z" fill="url(#stone)"/><path d="M567.2 833.7C567.2 806.4 592.9 793.1 610 793.1C627.1 793.1 652.8 806.4 652.8 833.7Z" fill="url(#dome)"/><path d="M603.8 795.1V777.9H616.2V795.1Z" fill="url(#stoneLit)"/><path d="M601.8 777.9Q610 768.4 618.2 777.9Z" fill="url(#stoneLit)"/><path d="M408.6 1000V950.6H467.5V1000Z" fill="url(#stone)"/><path d="M752.5 1000V950.6H811.4V1000Z" fill="url(#stone)"/></g>
<g><rect x="1043" y="753.2" width="2.2" height="3.2" fill="#F3E2AE" fill-opacity="0.25"/><rect x="1043" y="807.2" width="2.2" height="3.2" fill="#F3E2AE" fill-opacity="0.33"/><rect x="1043" y="879.2" width="2.2" height="3.2" fill="#F3E2AE" fill-opacity="0.47"/><rect x="1043" y="933.2" width="2.2" height="3.2" fill="#F3E2AE" fill-opacity="0.39"/><rect x="1043" y="942.2" width="2.2" height="3.2" fill="#F3E2AE" fill-opacity="0.22"/><rect x="1043" y="978.2" width="2.2" height="3.2" fill="#F3E2AE" fill-opacity="0.20"/><rect x="1043" y="987.2" width="2.2" height="3.2" fill="#F3E2AE" fill-opacity="0.23"/><rect x="1050.2" y="681.2" width="2.2" height="3.2" fill="#F3E2AE" fill-opacity="0.46"/><rect x="1050.2" y="699.2" width="2.2" height="3.2" fill="#F3E2AE" fill-opacity="0.28"/><rect x="1050.2" y="726.2" width="2.2" height="3.2" fill="#F3E2AE" fill-opacity="0.45"/><rect x="1050.2" y="762.2" width="2.2" height="3.2" fill="#F3E2AE" fill-opacity="0.23"/><rect x="1050.2" y="807.2" width="2.2" height="3.2" fill="#F3E2AE" fill-opacity="0.49"/><rect x="1050.2" y="825.2" width="2.2" height="3.2" fill="#F3E2AE" fill-opacity="0.36"/><rect x="1050.2" y="834.2" width="2.2" height="3.2" fill="#F3E2AE" fill-opacity="0.36"/><rect x="1057.4" y="699.2" width="2.2" height="3.2" fill="#F3E2AE" fill-opacity="0.21"/><rect x="1057.4" y="879.2" width="2.2" height="3.2" fill="#F3E2AE" fill-opacity="0.40"/><rect x="1064.5" y="690.2" width="2.2" height="3.2" fill="#F3E2AE" fill-opacity="0.25"/><rect x="1064.5" y="717.2" width="2.2" height="3.2" fill="#F3E2AE" fill-opacity="0.45"/><rect x="1064.5" y="762.2" width="2.2" height="3.2" fill="#F3E2AE" fill-opacity="0.20"/><rect x="1064.5" y="897.2" width="2.2" height="3.2" fill="#F3E2AE" fill-opacity="0.47"/><rect x="1064.5" y="987.2" width="2.2" height="3.2" fill="#F3E2AE" fill-opacity="0.33"/><rect x="1071.7" y="681.2" width="2.2" height="3.2" fill="#F3E2AE" fill-opacity="0.44"/><rect x="1071.7" y="762.2" width="2.2" height="3.2" fill="#F3E2AE" fill-opacity="0.37"/><rect x="1071.7" y="978.2" width="2.2" height="3.2" fill="#F3E2AE" fill-opacity="0.24"/><rect x="1078.9" y="672.2" width="2.2" height="3.2" fill="#F3E2AE" fill-opacity="0.27"/><rect x="1078.9" y="681.2" width="2.2" height="3.2" fill="#F3E2AE" fill-opacity="0.40"/><rect x="1078.9" y="708.2" width="2.2" height="3.2" fill="#F3E2AE" fill-opacity="0.41"/><rect x="1078.9" y="726.2" width="2.2" height="3.2" fill="#F3E2AE" fill-opacity="0.46"/><rect x="1078.9" y="861.2" width="2.2" height="3.2" fill="#F3E2AE" fill-opacity="0.37"/><rect x="1078.9" y="879.2" width="2.2" height="3.2" fill="#F3E2AE" fill-opacity="0.30"/><rect x="1078.9" y="906.2" width="2.2" height="3.2" fill="#F3E2AE" fill-opacity="0.50"/><rect x="1078.9" y="933.2" width="2.2" height="3.2" fill="#F3E2AE" fill-opacity="0.28"/><rect x="1078.9" y="942.2" width="2.2" height="3.2" fill="#F3E2AE" fill-opacity="0.43"/><rect x="1078.9" y="960.2" width="2.2" height="3.2" fill="#F3E2AE" fill-opacity="0.33"/><rect x="1086.1" y="672.2" width="2.2" height="3.2" fill="#F3E2AE" fill-opacity="0.48"/><rect x="1086.1" y="699.2" width="2.2" height="3.2" fill="#F3E2AE" fill-opacity="0.22"/><rect x="1086.1" y="726.2" width="2.2" height="3.2" fill="#F3E2AE" fill-opacity="0.48"/><rect x="1086.1" y="753.2" width="2.2" height="3.2" fill="#F3E2AE" fill-opacity="0.46"/><rect x="1086.1" y="762.2" width="2.2" height="3.2" fill="#F3E2AE" fill-opacity="0.46"/><rect x="1086.1" y="816.2" width="2.2" height="3.2" fill="#F3E2AE" fill-opacity="0.36"/><rect x="1086.1" y="834.2" width="2.2" height="3.2" fill="#F3E2AE" fill-opacity="0.25"/><rect x="1086.1" y="843.2" width="2.2" height="3.2" fill="#F3E2AE" fill-opacity="0.26"/><rect x="1086.1" y="915.2" width="2.2" height="3.2" fill="#F3E2AE" fill-opacity="0.28"/><rect x="1086.1" y="924.2" width="2.2" height="3.2" fill="#F3E2AE" fill-opacity="0.42"/><rect x="1086.1" y="969.2" width="2.2" height="3.2" fill="#F3E2AE" fill-opacity="0.45"/><rect x="1093.2" y="771.2" width="2.2" height="3.2" fill="#F3E2AE" fill-opacity="0.24"/><rect x="1093.2" y="780.2" width="2.2" height="3.2" fill="#F3E2AE" fill-opacity="0.42"/><rect x="1093.2" y="807.2" width="2.2" height="3.2" fill="#F3E2AE" fill-opacity="0.45"/><rect x="1093.2" y="870.2" width="2.2" height="3.2" fill="#F3E2AE" fill-opacity="0.33"/><rect x="1093.2" y="951.2" width="2.2" height="3.2" fill="#F3E2AE" fill-opacity="0.31"/><rect x="1100.4" y="672.2" width="2.2" height="3.2" fill="#F3E2AE" fill-opacity="0.28"/><rect x="1100.4" y="681.2" width="2.2" height="3.2" fill="#F3E2AE" fill-opacity="0.32"/><rect x="1100.4" y="690.2" width="2.2" height="3.2" fill="#F3E2AE" fill-opacity="0.21"/><rect x="1100.4" y="798.2" width="2.2" height="3.2" fill="#F3E2AE" fill-opacity="0.42"/><rect x="1100.4" y="816.2" width="2.2" height="3.2" fill="#F3E2AE" fill-opacity="0.45"/><rect x="1100.4" y="861.2" width="2.2" height="3.2" fill="#F3E2AE" fill-opacity="0.36"/><rect x="1100.4" y="951.2" width="2.2" height="3.2" fill="#F3E2AE" fill-opacity="0.24"/><rect x="1100.4" y="969.2" width="2.2" height="3.2" fill="#F3E2AE" fill-opacity="0.45"/><rect x="1107.6" y="699.2" width="2.2" height="3.2" fill="#F3E2AE" fill-opacity="0.44"/><rect x="1107.6" y="744.2" width="2.2" height="3.2" fill="#F3E2AE" fill-opacity="0.42"/><rect x="1107.6" y="762.2" width="2.2" height="3.2" fill="#F3E2AE" fill-opacity="0.28"/><rect x="1107.6" y="870.2" width="2.2" height="3.2" fill="#F3E2AE" fill-opacity="0.24"/><rect x="1107.6" y="915.2" width="2.2" height="3.2" fill="#F3E2AE" fill-opacity="0.22"/><rect x="1114.8" y="672.2" width="2.2" height="3.2" fill="#F3E2AE" fill-opacity="0.47"/><rect x="1114.8" y="708.2" width="2.2" height="3.2" fill="#F3E2AE" fill-opacity="0.34"/><rect x="1114.8" y="789.2" width="2.2" height="3.2" fill="#F3E2AE" fill-opacity="0.36"/><rect x="1114.8" y="807.2" width="2.2" height="3.2" fill="#F3E2AE" fill-opacity="0.45"/><rect x="1114.8" y="870.2" width="2.2" height="3.2" fill="#F3E2AE" fill-opacity="0.20"/><rect x="1114.8" y="906.2" width="2.2" height="3.2" fill="#F3E2AE" fill-opacity="0.30"/><rect x="1114.8" y="933.2" width="2.2" height="3.2" fill="#F3E2AE" fill-opacity="0.43"/><rect x="1114.8" y="951.2" width="2.2" height="3.2" fill="#F3E2AE" fill-opacity="0.48"/><rect x="1121.9" y="726.2" width="2.2" height="3.2" fill="#F3E2AE" fill-opacity="0.23"/><rect x="1121.9" y="879.2" width="2.2" height="3.2" fill="#F3E2AE" fill-opacity="0.42"/><rect x="1121.9" y="924.2" width="2.2" height="3.2" fill="#F3E2AE" fill-opacity="0.48"/><rect x="1121.9" y="933.2" width="2.2" height="3.2" fill="#F3E2AE" fill-opacity="0.34"/><rect x="1129.1" y="780.2" width="2.2" height="3.2" fill="#F3E2AE" fill-opacity="0.26"/><rect x="1129.1" y="789.2" width="2.2" height="3.2" fill="#F3E2AE" fill-opacity="0.30"/><rect x="1129.1" y="798.2" width="2.2" height="3.2" fill="#F3E2AE" fill-opacity="0.27"/><rect x="1129.1" y="888.2" width="2.2" height="3.2" fill="#F3E2AE" fill-opacity="0.28"/><rect x="1129.1" y="906.2" width="2.2" height="3.2" fill="#F3E2AE" fill-opacity="0.35"/><rect x="1136.3" y="681.2" width="2.2" height="3.2" fill="#F3E2AE" fill-opacity="0.21"/><rect x="1136.3" y="726.2" width="2.2" height="3.2" fill="#F3E2AE" fill-opacity="0.32"/><rect x="1136.3" y="780.2" width="2.2" height="3.2" fill="#F3E2AE" fill-opacity="0.25"/><rect x="1136.3" y="861.2" width="2.2" height="3.2" fill="#F3E2AE" fill-opacity="0.43"/><rect x="1136.3" y="906.2" width="2.2" height="3.2" fill="#F3E2AE" fill-opacity="0.28"/><rect x="1136.3" y="933.2" width="2.2" height="3.2" fill="#F3E2AE" fill-opacity="0.22"/><rect x="1136.3" y="987.2" width="2.2" height="3.2" fill="#F3E2AE" fill-opacity="0.29"/><rect x="1143.5" y="762.2" width="2.2" height="3.2" fill="#F3E2AE" fill-opacity="0.35"/><rect x="1143.5" y="825.2" width="2.2" height="3.2" fill="#F3E2AE" fill-opacity="0.30"/><rect x="1150.6" y="699.2" width="2.2" height="3.2" fill="#F3E2AE" fill-opacity="0.32"/><rect x="1150.6" y="726.2" width="2.2" height="3.2" fill="#F3E2AE" fill-opacity="0.22"/><rect x="1150.6" y="735.2" width="2.2" height="3.2" fill="#F3E2AE" fill-opacity="0.32"/><rect x="1150.6" y="825.2" width="2.2" height="3.2" fill="#F3E2AE" fill-opacity="0.40"/><rect x="1150.6" y="870.2" width="2.2" height="3.2" fill="#F3E2AE" fill-opacity="0.28"/><rect x="1150.6" y="897.2" width="2.2" height="3.2" fill="#F3E2AE" fill-opacity="0.49"/><rect x="1150.6" y="951.2" width="2.2" height="3.2" fill="#F3E2AE" fill-opacity="0.34"/><rect x="1157.8" y="681.2" width="2.2" height="3.2" fill="#F3E2AE" fill-opacity="0.32"/><rect x="1157.8" y="708.2" width="2.2" height="3.2" fill="#F3E2AE" fill-opacity="0.21"/><rect x="1157.8" y="717.2" width="2.2" height="3.2" fill="#F3E2AE" fill-opacity="0.48"/><rect x="1157.8" y="825.2" width="2.2" height="3.2" fill="#F3E2AE" fill-opacity="0.43"/><rect x="1157.8" y="861.2" width="2.2" height="3.2" fill="#F3E2AE" fill-opacity="0.27"/><rect x="1165" y="708.2" width="2.2" height="3.2" fill="#F3E2AE" fill-opacity="0.26"/><rect x="1165" y="735.2" width="2.2" height="3.2" fill="#F3E2AE" fill-opacity="0.21"/><rect x="1165" y="798.2" width="2.2" height="3.2" fill="#F3E2AE" fill-opacity="0.23"/><rect x="1165" y="897.2" width="2.2" height="3.2" fill="#F3E2AE" fill-opacity="0.45"/><rect x="1165" y="969.2" width="2.2" height="3.2" fill="#F3E2AE" fill-opacity="0.47"/><rect x="1054.5" y="545.6" width="2.2" height="3.2" fill="#F3E2AE" fill-opacity="0.34"/><rect x="1054.5" y="581.6" width="2.2" height="3.2" fill="#F3E2AE" fill-opacity="0.29"/><rect x="1054.5" y="590.6" width="2.2" height="3.2" fill="#F3E2AE" fill-opacity="0.26"/><rect x="1062.1" y="491.6" width="2.2" height="3.2" fill="#F3E2AE" fill-opacity="0.38"/><rect x="1062.1" y="527.6" width="2.2" height="3.2" fill="#F3E2AE" fill-opacity="0.26"/><rect x="1062.1" y="572.6" width="2.2" height="3.2" fill="#F3E2AE" fill-opacity="0.30"/><rect x="1062.1" y="635.6" width="2.2" height="3.2" fill="#F3E2AE" fill-opacity="0.23"/><rect x="1069.7" y="482.6" width="2.2" height="3.2" fill="#F3E2AE" fill-opacity="0.25"/><rect x="1069.7" y="626.6" width="2.2" height="3.2" fill="#F3E2AE" fill-opacity="0.47"/><rect x="1077.4" y="500.6" width="2.2" height="3.2" fill="#F3E2AE" fill-opacity="0.37"/><rect x="1077.4" y="527.6" width="2.2" height="3.2" fill="#F3E2AE" fill-opacity="0.39"/><rect x="1077.4" y="554.6" width="2.2" height="3.2" fill="#F3E2AE" fill-opacity="0.28"/><rect x="1077.4" y="581.6" width="2.2" height="3.2" fill="#F3E2AE" fill-opacity="0.35"/><rect x="1077.4" y="617.6" width="2.2" height="3.2" fill="#F3E2AE" fill-opacity="0.48"/><rect x="1077.4" y="644.6" width="2.2" height="3.2" fill="#F3E2AE" fill-opacity="0.48"/><rect x="1085" y="599.6" width="2.2" height="3.2" fill="#F3E2AE" fill-opacity="0.27"/><rect x="1085" y="626.6" width="2.2" height="3.2" fill="#F3E2AE" fill-opacity="0.37"/><rect x="1085" y="644.6" width="2.2" height="3.2" fill="#F3E2AE" fill-opacity="0.45"/><rect x="1085" y="653.6" width="2.2" height="3.2" fill="#F3E2AE" fill-opacity="0.38"/><rect x="1092.6" y="554.6" width="2.2" height="3.2" fill="#F3E2AE" fill-opacity="0.39"/><rect x="1092.6" y="626.6" width="2.2" height="3.2" fill="#F3E2AE" fill-opacity="0.24"/><rect x="1092.6" y="644.6" width="2.2" height="3.2" fill="#F3E2AE" fill-opacity="0.33"/><rect x="1092.6" y="662.6" width="2.2" height="3.2" fill="#F3E2AE" fill-opacity="0.39"/><rect x="1100.2" y="482.6" width="2.2" height="3.2" fill="#F3E2AE" fill-opacity="0.42"/><rect x="1100.2" y="509.6" width="2.2" height="3.2" fill="#F3E2AE" fill-opacity="0.35"/><rect x="1100.2" y="536.6" width="2.2" height="3.2" fill="#F3E2AE" fill-opacity="0.46"/><rect x="1100.2" y="644.6" width="2.2" height="3.2" fill="#F3E2AE" fill-opacity="0.31"/><rect x="1100.2" y="662.6" width="2.2" height="3.2" fill="#F3E2AE" fill-opacity="0.47"/><rect x="1107.8" y="500.6" width="2.2" height="3.2" fill="#F3E2AE" fill-opacity="0.35"/><rect x="1107.8" y="554.6" width="2.2" height="3.2" fill="#F3E2AE" fill-opacity="0.25"/><rect x="1107.8" y="617.6" width="2.2" height="3.2" fill="#F3E2AE" fill-opacity="0.36"/><rect x="1115.4" y="491.6" width="2.2" height="3.2" fill="#F3E2AE" fill-opacity="0.50"/><rect x="1115.4" y="599.6" width="2.2" height="3.2" fill="#F3E2AE" fill-opacity="0.45"/><rect x="1115.4" y="662.6" width="2.2" height="3.2" fill="#F3E2AE" fill-opacity="0.21"/><rect x="1123" y="482.6" width="2.2" height="3.2" fill="#F3E2AE" fill-opacity="0.38"/><rect x="1123" y="518.6" width="2.2" height="3.2" fill="#F3E2AE" fill-opacity="0.27"/><rect x="1123" y="536.6" width="2.2" height="3.2" fill="#F3E2AE" fill-opacity="0.20"/><rect x="1123" y="554.6" width="2.2" height="3.2" fill="#F3E2AE" fill-opacity="0.31"/><rect x="1123" y="617.6" width="2.2" height="3.2" fill="#F3E2AE" fill-opacity="0.48"/><rect x="1123" y="635.6" width="2.2" height="3.2" fill="#F3E2AE" fill-opacity="0.23"/><rect x="1130.6" y="500.6" width="2.2" height="3.2" fill="#F3E2AE" fill-opacity="0.39"/><rect x="1130.6" y="581.6" width="2.2" height="3.2" fill="#F3E2AE" fill-opacity="0.36"/><rect x="1130.6" y="608.6" width="2.2" height="3.2" fill="#F3E2AE" fill-opacity="0.43"/><rect x="1130.6" y="617.6" width="2.2" height="3.2" fill="#F3E2AE" fill-opacity="0.37"/><rect x="1130.6" y="635.6" width="2.2" height="3.2" fill="#F3E2AE" fill-opacity="0.26"/><rect x="1138.3" y="518.6" width="2.2" height="3.2" fill="#F3E2AE" fill-opacity="0.47"/><rect x="1138.3" y="545.6" width="2.2" height="3.2" fill="#F3E2AE" fill-opacity="0.45"/><rect x="1138.3" y="599.6" width="2.2" height="3.2" fill="#F3E2AE" fill-opacity="0.27"/><rect x="1138.3" y="608.6" width="2.2" height="3.2" fill="#F3E2AE" fill-opacity="0.30"/><rect x="1145.9" y="554.6" width="2.2" height="3.2" fill="#F3E2AE" fill-opacity="0.28"/><rect x="1153.5" y="581.6" width="2.2" height="3.2" fill="#F3E2AE" fill-opacity="0.47"/><rect x="1153.5" y="590.6" width="2.2" height="3.2" fill="#F3E2AE" fill-opacity="0.21"/><rect x="1153.5" y="599.6" width="2.2" height="3.2" fill="#F3E2AE" fill-opacity="0.48"/><rect x="1153.5" y="617.6" width="2.2" height="3.2" fill="#F3E2AE" fill-opacity="0.21"/><rect x="1153.5" y="626.6" width="2.2" height="3.2" fill="#F3E2AE" fill-opacity="0.41"/><rect x="1153.5" y="662.6" width="2.2" height="3.2" fill="#F3E2AE" fill-opacity="0.38"/><rect x="1066" y="384.3" width="2.2" height="3.2" fill="#F3E2AE" fill-opacity="0.46"/><rect x="1066" y="411.3" width="2.2" height="3.2" fill="#F3E2AE" fill-opacity="0.26"/><rect x="1066" y="420.3" width="2.2" height="3.2" fill="#F3E2AE" fill-opacity="0.21"/><rect x="1073.6" y="357.3" width="2.2" height="3.2" fill="#F3E2AE" fill-opacity="0.23"/><rect x="1073.6" y="402.3" width="2.2" height="3.2" fill="#F3E2AE" fill-opacity="0.28"/><rect x="1081.2" y="357.3" width="2.2" height="3.2" fill="#F3E2AE" fill-opacity="0.32"/><rect x="1081.2" y="429.3" width="2.2" height="3.2" fill="#F3E2AE" fill-opacity="0.45"/><rect x="1081.2" y="447.3" width="2.2" height="3.2" fill="#F3E2AE" fill-opacity="0.26"/><rect x="1088.8" y="348.3" width="2.2" height="3.2" fill="#F3E2AE" fill-opacity="0.35"/><rect x="1088.8" y="465.3" width="2.2" height="3.2" fill="#F3E2AE" fill-opacity="0.39"/><rect x="1096.4" y="348.3" width="2.2" height="3.2" fill="#F3E2AE" fill-opacity="0.44"/><rect x="1096.4" y="420.3" width="2.2" height="3.2" fill="#F3E2AE" fill-opacity="0.47"/><rect x="1096.4" y="429.3" width="2.2" height="3.2" fill="#F3E2AE" fill-opacity="0.26"/><rect x="1104" y="429.3" width="2.2" height="3.2" fill="#F3E2AE" fill-opacity="0.45"/><rect x="1111.6" y="366.3" width="2.2" height="3.2" fill="#F3E2AE" fill-opacity="0.34"/><rect x="1111.6" y="429.3" width="2.2" height="3.2" fill="#F3E2AE" fill-opacity="0.25"/><rect x="1119.2" y="384.3" width="2.2" height="3.2" fill="#F3E2AE" fill-opacity="0.49"/><rect x="1119.2" y="393.3" width="2.2" height="3.2" fill="#F3E2AE" fill-opacity="0.32"/><rect x="1119.2" y="456.3" width="2.2" height="3.2" fill="#F3E2AE" fill-opacity="0.26"/><rect x="1126.8" y="348.3" width="2.2" height="3.2" fill="#F3E2AE" fill-opacity="0.32"/><rect x="1126.8" y="402.3" width="2.2" height="3.2" fill="#F3E2AE" fill-opacity="0.38"/><rect x="1134.4" y="447.3" width="2.2" height="3.2" fill="#F3E2AE" fill-opacity="0.33"/><rect x="1078.8" y="261.4" width="2.2" height="3.2" fill="#F3E2AE" fill-opacity="0.36"/><rect x="1078.8" y="306.4" width="2.2" height="3.2" fill="#F3E2AE" fill-opacity="0.37"/><rect x="1093.2" y="261.4" width="2.2" height="3.2" fill="#F3E2AE" fill-opacity="0.50"/><rect x="1093.2" y="279.4" width="2.2" height="3.2" fill="#F3E2AE" fill-opacity="0.28"/><rect x="1093.2" y="297.4" width="2.2" height="3.2" fill="#F3E2AE" fill-opacity="0.33"/><rect x="1100.4" y="333.4" width="2.2" height="3.2" fill="#F3E2AE" fill-opacity="0.43"/><rect x="1114.8" y="297.4" width="2.2" height="3.2" fill="#F3E2AE" fill-opacity="0.45"/><rect x="1122" y="288.4" width="2.2" height="3.2" fill="#F3E2AE" fill-opacity="0.42"/><rect x="1129.2" y="306.4" width="2.2" height="3.2" fill="#F3E2AE" fill-opacity="0.45"/><rect x="1129.2" y="333.4" width="2.2" height="3.2" fill="#F3E2AE" fill-opacity="0.45"/><rect x="1091.6" y="223" width="2.2" height="3.2" fill="#F3E2AE" fill-opacity="0.20"/><rect x="1099.9" y="214" width="2.2" height="3.2" fill="#F3E2AE" fill-opacity="0.24"/><rect x="1099.9" y="250" width="2.2" height="3.2" fill="#F3E2AE" fill-opacity="0.47"/><rect x="646" y="891.2" width="2.2" height="3.2" fill="#F3E2AE" fill-opacity="0.19"/><rect x="646" y="900.2" width="2.2" height="3.2" fill="#F3E2AE" fill-opacity="0.19"/><rect x="646" y="909.2" width="2.2" height="3.2" fill="#F3E2AE" fill-opacity="0.19"/><rect x="646" y="945.2" width="2.2" height="3.2" fill="#F3E2AE" fill-opacity="0.25"/><rect x="653.2" y="837.2" width="2.2" height="3.2" fill="#F3E2AE" fill-opacity="0.22"/><rect x="653.2" y="855.2" width="2.2" height="3.2" fill="#F3E2AE" fill-opacity="0.21"/><rect x="653.2" y="927.2" width="2.2" height="3.2" fill="#F3E2AE" fill-opacity="0.23"/><rect x="667.5" y="819.2" width="2.2" height="3.2" fill="#F3E2AE" fill-opacity="0.23"/><rect x="667.5" y="846.2" width="2.2" height="3.2" fill="#F3E2AE" fill-opacity="0.16"/><rect x="667.5" y="855.2" width="2.2" height="3.2" fill="#F3E2AE" fill-opacity="0.14"/><rect x="674.7" y="819.2" width="2.2" height="3.2" fill="#F3E2AE" fill-opacity="0.14"/><rect x="674.7" y="828.2" width="2.2" height="3.2" fill="#F3E2AE" fill-opacity="0.24"/><rect x="674.7" y="954.2" width="2.2" height="3.2" fill="#F3E2AE" fill-opacity="0.21"/><rect x="674.7" y="963.2" width="2.2" height="3.2" fill="#F3E2AE" fill-opacity="0.13"/><rect x="681.8" y="828.2" width="2.2" height="3.2" fill="#F3E2AE" fill-opacity="0.18"/><rect x="681.8" y="882.2" width="2.2" height="3.2" fill="#F3E2AE" fill-opacity="0.22"/><rect x="681.8" y="900.2" width="2.2" height="3.2" fill="#F3E2AE" fill-opacity="0.11"/><rect x="681.8" y="909.2" width="2.2" height="3.2" fill="#F3E2AE" fill-opacity="0.23"/><rect x="681.8" y="918.2" width="2.2" height="3.2" fill="#F3E2AE" fill-opacity="0.27"/><rect x="681.8" y="927.2" width="2.2" height="3.2" fill="#F3E2AE" fill-opacity="0.26"/><rect x="681.8" y="936.2" width="2.2" height="3.2" fill="#F3E2AE" fill-opacity="0.11"/><rect x="681.8" y="981.2" width="2.2" height="3.2" fill="#F3E2AE" fill-opacity="0.24"/><rect x="689" y="837.2" width="2.2" height="3.2" fill="#F3E2AE" fill-opacity="0.22"/><rect x="689" y="900.2" width="2.2" height="3.2" fill="#F3E2AE" fill-opacity="0.11"/><rect x="689" y="927.2" width="2.2" height="3.2" fill="#F3E2AE" fill-opacity="0.16"/><rect x="689" y="972.2" width="2.2" height="3.2" fill="#F3E2AE" fill-opacity="0.17"/><rect x="696.2" y="828.2" width="2.2" height="3.2" fill="#F3E2AE" fill-opacity="0.25"/><rect x="696.2" y="927.2" width="2.2" height="3.2" fill="#F3E2AE" fill-opacity="0.28"/><rect x="703.3" y="900.2" width="2.2" height="3.2" fill="#F3E2AE" fill-opacity="0.16"/><rect x="703.3" y="945.2" width="2.2" height="3.2" fill="#F3E2AE" fill-opacity="0.25"/><rect x="710.5" y="855.2" width="2.2" height="3.2" fill="#F3E2AE" fill-opacity="0.21"/><rect x="710.5" y="981.2" width="2.2" height="3.2" fill="#F3E2AE" fill-opacity="0.25"/><rect x="717.7" y="954.2" width="2.2" height="3.2" fill="#F3E2AE" fill-opacity="0.12"/><rect x="717.7" y="981.2" width="2.2" height="3.2" fill="#F3E2AE" fill-opacity="0.22"/><rect x="724.8" y="819.2" width="2.2" height="3.2" fill="#F3E2AE" fill-opacity="0.21"/><rect x="724.8" y="846.2" width="2.2" height="3.2" fill="#F3E2AE" fill-opacity="0.12"/><rect x="724.8" y="963.2" width="2.2" height="3.2" fill="#F3E2AE" fill-opacity="0.15"/><rect x="724.8" y="981.2" width="2.2" height="3.2" fill="#F3E2AE" fill-opacity="0.12"/><rect x="732" y="855.2" width="2.2" height="3.2" fill="#F3E2AE" fill-opacity="0.21"/><rect x="732" y="873.2" width="2.2" height="3.2" fill="#F3E2AE" fill-opacity="0.27"/><rect x="732" y="945.2" width="2.2" height="3.2" fill="#F3E2AE" fill-opacity="0.27"/><rect x="732" y="972.2" width="2.2" height="3.2" fill="#F3E2AE" fill-opacity="0.15"/><rect x="654.3" y="731.6" width="2.2" height="3.2" fill="#F3E2AE" fill-opacity="0.24"/><rect x="654.3" y="767.6" width="2.2" height="3.2" fill="#F3E2AE" fill-opacity="0.14"/><rect x="662" y="731.6" width="2.2" height="3.2" fill="#F3E2AE" fill-opacity="0.17"/><rect x="662" y="749.6" width="2.2" height="3.2" fill="#F3E2AE" fill-opacity="0.19"/><rect x="662" y="776.6" width="2.2" height="3.2" fill="#F3E2AE" fill-opacity="0.23"/><rect x="662" y="785.6" width="2.2" height="3.2" fill="#F3E2AE" fill-opacity="0.23"/><rect x="662" y="803.6" width="2.2" height="3.2" fill="#F3E2AE" fill-opacity="0.27"/><rect x="669.7" y="749.6" width="2.2" height="3.2" fill="#F3E2AE" fill-opacity="0.19"/><rect x="669.7" y="758.6" width="2.2" height="3.2" fill="#F3E2AE" fill-opacity="0.27"/><rect x="677.4" y="731.6" width="2.2" height="3.2" fill="#F3E2AE" fill-opacity="0.15"/><rect x="677.4" y="740.6" width="2.2" height="3.2" fill="#F3E2AE" fill-opacity="0.23"/><rect x="677.4" y="758.6" width="2.2" height="3.2" fill="#F3E2AE" fill-opacity="0.26"/><rect x="677.4" y="785.6" width="2.2" height="3.2" fill="#F3E2AE" fill-opacity="0.16"/><rect x="685.1" y="749.6" width="2.2" height="3.2" fill="#F3E2AE" fill-opacity="0.28"/><rect x="685.1" y="758.6" width="2.2" height="3.2" fill="#F3E2AE" fill-opacity="0.26"/><rect x="692.9" y="758.6" width="2.2" height="3.2" fill="#F3E2AE" fill-opacity="0.16"/><rect x="692.9" y="776.6" width="2.2" height="3.2" fill="#F3E2AE" fill-opacity="0.23"/><rect x="692.9" y="803.6" width="2.2" height="3.2" fill="#F3E2AE" fill-opacity="0.25"/><rect x="700.6" y="722.6" width="2.2" height="3.2" fill="#F3E2AE" fill-opacity="0.11"/><rect x="700.6" y="794.6" width="2.2" height="3.2" fill="#F3E2AE" fill-opacity="0.14"/><rect x="708.3" y="731.6" width="2.2" height="3.2" fill="#F3E2AE" fill-opacity="0.13"/><rect x="716" y="722.6" width="2.2" height="3.2" fill="#F3E2AE" fill-opacity="0.24"/><rect x="716" y="749.6" width="2.2" height="3.2" fill="#F3E2AE" fill-opacity="0.25"/><rect x="716" y="794.6" width="2.2" height="3.2" fill="#F3E2AE" fill-opacity="0.26"/><rect x="723.7" y="785.6" width="2.2" height="3.2" fill="#F3E2AE" fill-opacity="0.20"/><rect x="662.6" y="638.8" width="2.2" height="3.2" fill="#F3E2AE" fill-opacity="0.23"/><rect x="662.6" y="701.8" width="2.2" height="3.2" fill="#F3E2AE" fill-opacity="0.26"/><rect x="670.1" y="683.8" width="2.2" height="3.2" fill="#F3E2AE" fill-opacity="0.27"/><rect x="677.7" y="638.8" width="2.2" height="3.2" fill="#F3E2AE" fill-opacity="0.15"/><rect x="677.7" y="656.8" width="2.2" height="3.2" fill="#F3E2AE" fill-opacity="0.13"/><rect x="677.7" y="683.8" width="2.2" height="3.2" fill="#F3E2AE" fill-opacity="0.21"/><rect x="685.2" y="647.8" width="2.2" height="3.2" fill="#F3E2AE" fill-opacity="0.26"/><rect x="685.2" y="665.8" width="2.2" height="3.2" fill="#F3E2AE" fill-opacity="0.13"/><rect x="685.2" y="701.8" width="2.2" height="3.2" fill="#F3E2AE" fill-opacity="0.18"/><rect x="692.8" y="638.8" width="2.2" height="3.2" fill="#F3E2AE" fill-opacity="0.21"/><rect x="692.8" y="656.8" width="2.2" height="3.2" fill="#F3E2AE" fill-opacity="0.21"/><rect x="707.9" y="701.8" width="2.2" height="3.2" fill="#F3E2AE" fill-opacity="0.20"/><rect x="715.4" y="701.8" width="2.2" height="3.2" fill="#F3E2AE" fill-opacity="0.18"/><rect x="671.8" y="599.4" width="2.2" height="3.2" fill="#F3E2AE" fill-opacity="0.14"/><rect x="680.4" y="626.4" width="2.2" height="3.2" fill="#F3E2AE" fill-opacity="0.22"/><rect x="706.2" y="617.4" width="2.2" height="3.2" fill="#F3E2AE" fill-opacity="0.21"/><rect x="697" y="564" width="2.2" height="3.2" fill="#F3E2AE" fill-opacity="0.13"/><rect x="697" y="573" width="2.2" height="3.2" fill="#F3E2AE" fill-opacity="0.16"/><rect x="824.1" y="961.1" width="7.5" height="8" fill="#F3E2AE" fill-opacity="0.25"/><rect x="836.4" y="312.2" width="10" height="7" fill="#F3E2AE" fill-opacity="0.44"/><rect x="870" y="706.3" width="10" height="7" fill="#F3E2AE" fill-opacity="0.58"/><rect x="504" y="947.7" width="6.8" height="22.2" fill="#F3E2AE" fill-opacity="0.15"/><rect x="555.3" y="947.7" width="6.8" height="22.2" fill="#F3E2AE" fill-opacity="0.15"/><rect x="580.9" y="947.7" width="6.8" height="22.2" fill="#F3E2AE" fill-opacity="0.22"/><rect x="632.2" y="947.7" width="6.8" height="22.2" fill="#F3E2AE" fill-opacity="0.18"/><rect x="709.2" y="947.7" width="6.8" height="22.2" fill="#F3E2AE" fill-opacity="0.20"/><rect x="612.4" y="841.3" width="5.5" height="11.4" fill="#F3E2AE" fill-opacity="0.60"/><rect x="643" y="841.3" width="5.5" height="11.4" fill="#F3E2AE" fill-opacity="0.61"/><rect x="605.8" y="779.8" width="8.3" height="7.6" fill="#F3E2AE" fill-opacity="0.70"/><rect x="452.4" y="965.8" width="6.5" height="20.9" fill="#F3E2AE" fill-opacity="0.65"/><rect x="762" y="965.8" width="6.5" height="20.9" fill="#F3E2AE" fill-opacity="0.61"/><rect x="796.2" y="965.8" width="6.5" height="20.9" fill="#F3E2AE" fill-opacity="0.69"/></g>
<g><path d="M770 880V875h5V880h5V875h5V880h5V875h5V880h5V875h5V880h5V875h5V880h5V875h5V880h5V875h5V880h5V875h5V880h5V875h5V880h5V875h5V880h5V875h5V880h5V875h5V880h5V875h5V880h5V875h5V880h5V875h5V880h5V875h5V880h5V875h5V880h5V875h5V880h5V875h5V880h5V875h5V880h5V875h5V880h5V875h5V880h5V875h5V880h5V875h5V880h5V875h5V880h5V875h5V880h5V875h5V880h5" stroke="#E2CE92" stroke-opacity="0.35" stroke-width="0.7"/><path d="M780.8 988V908.2Q780.8 898 789.3 891.2Q797.8 898 797.8 908.2V988M789.3 988V898" stroke="#E2CE92" stroke-opacity="0.26" stroke-width="0.6"/><path d="M819.4 988V908.2Q819.4 898 827.9 891.2Q836.3 898 836.3 908.2V988M827.9 988V898" stroke="#E2CE92" stroke-opacity="0.26" stroke-width="0.6"/><path d="M857.9 988V908.2Q857.9 898 866.4 891.2Q874.9 898 874.9 908.2V988M866.4 988V898" stroke="#E2CE92" stroke-opacity="0.26" stroke-width="0.6"/><path d="M896.5 988V908.2Q896.5 898 905 891.2Q913.5 898 913.5 908.2V988M905 988V898" stroke="#E2CE92" stroke-opacity="0.26" stroke-width="0.6"/><path d="M935.1 988V908.2Q935.1 898 943.6 891.2Q952.1 898 952.1 908.2V988M943.6 988V898" stroke="#E2CE92" stroke-opacity="0.26" stroke-width="0.6"/><path d="M973.7 988V908.2Q973.7 898 982.1 891.2Q990.6 898 990.6 908.2V988M982.1 988V898" stroke="#E2CE92" stroke-opacity="0.26" stroke-width="0.6"/><path d="M1012.2 988V908.2Q1012.2 898 1020.7 891.2Q1029.2 898 1029.2 908.2V988M1020.7 988V898" stroke="#E2CE92" stroke-opacity="0.26" stroke-width="0.6"/><path d="M816 389.7h118" stroke="#E2CE92" stroke-opacity="0.4" stroke-width="0.8"/><path d="M816 511.7h118" stroke="#E2CE92" stroke-opacity="0.4" stroke-width="0.8"/><path d="M816 633.8h118" stroke="#E2CE92" stroke-opacity="0.4" stroke-width="0.8"/><path d="M816 755.9h118" stroke="#E2CE92" stroke-opacity="0.4" stroke-width="0.8"/><path d="M816 877.9h118" stroke="#E2CE92" stroke-opacity="0.4" stroke-width="0.8"/><path d="M832.4 383.7V293.5Q832.4 275.6 841.4 264.8Q850.4 275.6 850.4 293.5V383.7" stroke="#E2CE92" stroke-opacity="0.28" stroke-width="0.6"/><path d="M866 383.7V293.5Q866 275.6 875 264.8Q884 275.6 884 293.5V383.7" stroke="#E2CE92" stroke-opacity="0.28" stroke-width="0.6"/><path d="M899.6 383.7V293.5Q899.6 275.6 908.6 264.8Q917.6 275.6 917.6 293.5V383.7" stroke="#E2CE92" stroke-opacity="0.28" stroke-width="0.6"/><path d="M832.4 505.7V415.6Q832.4 397.7 841.4 386.9Q850.4 397.7 850.4 415.6V505.7" stroke="#E2CE92" stroke-opacity="0.28" stroke-width="0.6"/><path d="M866 505.7V415.6Q866 397.7 875 386.9Q884 397.7 884 415.6V505.7" stroke="#E2CE92" stroke-opacity="0.28" stroke-width="0.6"/><path d="M899.6 505.7V415.6Q899.6 397.7 908.6 386.9Q917.6 397.7 917.6 415.6V505.7" stroke="#E2CE92" stroke-opacity="0.28" stroke-width="0.6"/><path d="M832.4 627.8V537.7Q832.4 519.7 841.4 509Q850.4 519.7 850.4 537.7V627.8" stroke="#E2CE92" stroke-opacity="0.28" stroke-width="0.6"/><path d="M866 627.8V537.7Q866 519.7 875 509Q884 519.7 884 537.7V627.8" stroke="#E2CE92" stroke-opacity="0.28" stroke-width="0.6"/><path d="M899.6 627.8V537.7Q899.6 519.7 908.6 509Q917.6 519.7 917.6 537.7V627.8" stroke="#E2CE92" stroke-opacity="0.28" stroke-width="0.6"/><path d="M832.4 749.9V659.7Q832.4 641.8 841.4 631Q850.4 641.8 850.4 659.7V749.9" stroke="#E2CE92" stroke-opacity="0.28" stroke-width="0.6"/><path d="M866 749.9V659.7Q866 641.8 875 631Q884 641.8 884 659.7V749.9" stroke="#E2CE92" stroke-opacity="0.28" stroke-width="0.6"/><path d="M899.6 749.9V659.7Q899.6 641.8 908.6 631Q917.6 641.8 917.6 659.7V749.9" stroke="#E2CE92" stroke-opacity="0.28" stroke-width="0.6"/><path d="M832.4 871.9V781.8Q832.4 763.9 841.4 753.1Q850.4 763.9 850.4 781.8V871.9" stroke="#E2CE92" stroke-opacity="0.28" stroke-width="0.6"/><path d="M866 871.9V781.8Q866 763.9 875 753.1Q884 763.9 884 781.8V871.9" stroke="#E2CE92" stroke-opacity="0.28" stroke-width="0.6"/><path d="M899.6 871.9V781.8Q899.6 763.9 908.6 753.1Q917.6 763.9 917.6 781.8V871.9" stroke="#E2CE92" stroke-opacity="0.28" stroke-width="0.6"/><path d="M832.4 994V903.9Q832.4 885.9 841.4 875.2Q850.4 885.9 850.4 903.9V994" stroke="#E2CE92" stroke-opacity="0.28" stroke-width="0.6"/><path d="M866 994V903.9Q866 885.9 875 875.2Q884 885.9 884 903.9V994" stroke="#E2CE92" stroke-opacity="0.28" stroke-width="0.6"/><path d="M899.6 994V903.9Q899.6 885.9 908.6 875.2Q917.6 885.9 917.6 903.9V994" stroke="#E2CE92" stroke-opacity="0.28" stroke-width="0.6"/><path d="M843.6 277.6h62.7" stroke="#E2CE92" stroke-opacity="0.35" stroke-width="0.7"/><path d="M843.6 283.6h62.7" stroke="#E2CE92" stroke-opacity="0.35" stroke-width="0.7"/><path d="M843.6 289.6h62.7" stroke="#E2CE92" stroke-opacity="0.35" stroke-width="0.7"/><path d="M843.6 295.6h62.7" stroke="#E2CE92" stroke-opacity="0.35" stroke-width="0.7"/><path d="M835 248l3 -4M915 248l-3 -4" stroke="#E2CE92" stroke-opacity="0.45" stroke-width="0.7"/><path d="M843 228.4l3 -4M907 228.4l-3 -4" stroke="#E2CE92" stroke-opacity="0.45" stroke-width="0.7"/><path d="M851 208.8l3 -4M899 208.8l-3 -4" stroke="#E2CE92" stroke-opacity="0.45" stroke-width="0.7"/><path d="M859 189.2l3 -4M891 189.2l-3 -4" stroke="#E2CE92" stroke-opacity="0.45" stroke-width="0.7"/><path d="M867 169.6l3 -4M883 169.6l-3 -4" stroke="#E2CE92" stroke-opacity="0.45" stroke-width="0.7"/><path d="M875 150V134M870 141h10" stroke="#E2CE92" stroke-opacity="0.7" stroke-width="1"/><path d="M488.3 910.7h12.5" stroke="#E2CE92" stroke-opacity="0.5" stroke-width="0.8"/><path d="M514 910.7h12.5" stroke="#E2CE92" stroke-opacity="0.5" stroke-width="0.8"/><path d="M539.6 910.7h12.5" stroke="#E2CE92" stroke-opacity="0.5" stroke-width="0.8"/><path d="M565.2 910.7h12.5" stroke="#E2CE92" stroke-opacity="0.5" stroke-width="0.8"/><path d="M590.9 910.7h12.5" stroke="#E2CE92" stroke-opacity="0.5" stroke-width="0.8"/><path d="M616.6 910.7h12.5" stroke="#E2CE92" stroke-opacity="0.5" stroke-width="0.8"/><path d="M642.2 910.7h12.5" stroke="#E2CE92" stroke-opacity="0.5" stroke-width="0.8"/><path d="M667.9 910.7h12.5" stroke="#E2CE92" stroke-opacity="0.5" stroke-width="0.8"/><path d="M693.5 910.7h12.5" stroke="#E2CE92" stroke-opacity="0.5" stroke-width="0.8"/><path d="M719.2 910.7h12.5" stroke="#E2CE92" stroke-opacity="0.5" stroke-width="0.8"/><path d="M473.2 896.4h273.6M477 901.2h266" stroke="#E2CE92" stroke-opacity="0.55" stroke-width="0.8"/><path d="M543.5 893.6L610 868.9L676.5 893.6Z" stroke="#E2CE92" stroke-opacity="0.35" stroke-width="0.6"/><path d="M569.1 836.7V862.2" stroke="#E2CE92" stroke-opacity="0.3" stroke-width="0.6"/><path d="M579.4 836.7V862.2" stroke="#E2CE92" stroke-opacity="0.3" stroke-width="0.6"/><path d="M589.6 836.7V862.2" stroke="#E2CE92" stroke-opacity="0.3" stroke-width="0.6"/><path d="M599.8 836.7V862.2" stroke="#E2CE92" stroke-opacity="0.3" stroke-width="0.6"/><path d="M610 836.7V862.2" stroke="#E2CE92" stroke-opacity="0.3" stroke-width="0.6"/><path d="M620.2 836.7V862.2" stroke="#E2CE92" stroke-opacity="0.3" stroke-width="0.6"/><path d="M630.4 836.7V862.2" stroke="#E2CE92" stroke-opacity="0.3" stroke-width="0.6"/><path d="M640.6 836.7V862.2" stroke="#E2CE92" stroke-opacity="0.3" stroke-width="0.6"/><path d="M650.8 836.7V862.2" stroke="#E2CE92" stroke-opacity="0.3" stroke-width="0.6"/><path d="M559.6 833.7h100.7" stroke="#E2CE92" stroke-opacity="0.55" stroke-width="0.9"/><path d="M584.4 833.7Q595.9 802.6 610 794.1" stroke="#E2CE92" stroke-opacity="0.35" stroke-width="0.6"/><path d="M597.2 833.7Q602.9 802.6 610 794.1" stroke="#E2CE92" stroke-opacity="0.35" stroke-width="0.6"/><path d="M610 833.7Q610 802.6 610 794.1" stroke="#E2CE92" stroke-opacity="0.35" stroke-width="0.6"/><path d="M622.8 833.7Q617.1 802.6 610 794.1" stroke="#E2CE92" stroke-opacity="0.35" stroke-width="0.6"/><path d="M635.6 833.7Q624.1 802.6 610 794.1" stroke="#E2CE92" stroke-opacity="0.35" stroke-width="0.6"/><path d="M610 770.3V760.8" stroke="#E2CE92" stroke-opacity="0.8" stroke-width="1"/><path d="M406.6 950.6h62.9" stroke="#E2CE92" stroke-opacity="0.5" stroke-width="0.8"/><path d="M417.2 988.6V963.9h8.5V988.6" stroke="#E2CE92" stroke-opacity="0.3" stroke-width="0.6"/><path d="M434.3 988.6V963.9h8.5V988.6" stroke="#E2CE92" stroke-opacity="0.3" stroke-width="0.6"/><path d="M451.4 988.6V963.9h8.5V988.6" stroke="#E2CE92" stroke-opacity="0.3" stroke-width="0.6"/><path d="M750.5 950.6h62.9" stroke="#E2CE92" stroke-opacity="0.5" stroke-width="0.8"/><path d="M761 988.6V963.9h8.5V988.6" stroke="#E2CE92" stroke-opacity="0.3" stroke-width="0.6"/><path d="M778.1 988.6V963.9h8.5V988.6" stroke="#E2CE92" stroke-opacity="0.3" stroke-width="0.6"/><path d="M795.2 988.6V963.9h8.5V988.6" stroke="#E2CE92" stroke-opacity="0.3" stroke-width="0.6"/></g>
<g><path d="M1120.4 210V257.4H1133.2V344.3H1146V478.6H1157.5V668.2H1169V1000" stroke="url(#rim)" stroke-opacity="0.45" stroke-width="0.9" stroke-linecap="round"/><path d="M701 560V586.4H710.2V634.8H719.4V709.6H727.7V815.2H736V1000" stroke="url(#rim)" stroke-opacity="0.45" stroke-width="0.9" stroke-linecap="round"/><path d="M770 854L773 876" stroke="url(#rim)" stroke-opacity="0.55" stroke-width="0.8" stroke-linecap="round"/><path d="M808.6 854L811.6 876" stroke="url(#rim)" stroke-opacity="0.55" stroke-width="0.8" stroke-linecap="round"/><path d="M847.1 854L850.1 876" stroke="url(#rim)" stroke-opacity="0.55" stroke-width="0.8" stroke-linecap="round"/><path d="M885.7 854L888.7 876" stroke="url(#rim)" stroke-opacity="0.55" stroke-width="0.8" stroke-linecap="round"/><path d="M924.3 854L927.3 876" stroke="url(#rim)" stroke-opacity="0.55" stroke-width="0.8" stroke-linecap="round"/><path d="M962.9 854L965.9 876" stroke="url(#rim)" stroke-opacity="0.55" stroke-width="0.8" stroke-linecap="round"/><path d="M1001.4 854L1004.4 876" stroke="url(#rim)" stroke-opacity="0.55" stroke-width="0.8" stroke-linecap="round"/><path d="M1040 854L1043 876" stroke="url(#rim)" stroke-opacity="0.55" stroke-width="0.8" stroke-linecap="round"/><path d="M770 880H1040" stroke="url(#rim)" stroke-opacity="0.4" stroke-width="0.8" stroke-linecap="round"/><path d="M819 161.2L824 249.6" stroke="url(#rim)" stroke-opacity="0.8" stroke-width="0.9" stroke-linecap="round"/><path d="M931 161.2L936 249.6" stroke="url(#rim)" stroke-opacity="0.8" stroke-width="0.9" stroke-linecap="round"/><path d="M931 1000V267.6" stroke="url(#rim)" stroke-opacity="0.85" stroke-width="1.4" stroke-linecap="round"/><path d="M875 150L923 267.6" stroke="url(#rim)" stroke-opacity="0.95" stroke-width="1.2" stroke-linecap="round"/><path d="M498.9 984.8L498.1 910.7" stroke="url(#rim)" stroke-opacity="0.6" stroke-width="0.8" stroke-linecap="round"/><path d="M524.5 984.8L523.7 910.7" stroke="url(#rim)" stroke-opacity="0.6" stroke-width="0.8" stroke-linecap="round"/><path d="M550.1 984.8L549.4 910.7" stroke="url(#rim)" stroke-opacity="0.6" stroke-width="0.8" stroke-linecap="round"/><path d="M575.8 984.8L575 910.7" stroke="url(#rim)" stroke-opacity="0.6" stroke-width="0.8" stroke-linecap="round"/><path d="M601.5 984.8L600.7 910.7" stroke="url(#rim)" stroke-opacity="0.6" stroke-width="0.8" stroke-linecap="round"/><path d="M627.1 984.8L626.3 910.7" stroke="url(#rim)" stroke-opacity="0.6" stroke-width="0.8" stroke-linecap="round"/><path d="M652.8 984.8L652 910.7" stroke="url(#rim)" stroke-opacity="0.6" stroke-width="0.8" stroke-linecap="round"/><path d="M678.4 984.8L677.6 910.7" stroke="url(#rim)" stroke-opacity="0.6" stroke-width="0.8" stroke-linecap="round"/><path d="M704 984.8L703.2 910.7" stroke="url(#rim)" stroke-opacity="0.6" stroke-width="0.8" stroke-linecap="round"/><path d="M729.7 984.8L728.9 910.7" stroke="url(#rim)" stroke-opacity="0.6" stroke-width="0.8" stroke-linecap="round"/><path d="M473.2 896.4h273.6" stroke="url(#rim)" stroke-opacity="0.7" stroke-width="1" stroke-linecap="round"/><path d="M610 862.2L686 896.4" stroke="url(#rim)" stroke-opacity="0.85" stroke-width="1.1" stroke-linecap="round"/><path d="M610 793.1C627.1 793.1 652.8 806.4 652.8 833.7" stroke="url(#rim)" stroke-opacity="0.95" stroke-width="1.4" stroke-linecap="round"/><path d="M652.8 833.7" stroke="url(#rim)" stroke-opacity="0.4" stroke-width="1" stroke-linecap="round"/><path d="M811.4 1000V950.6" stroke="url(#rim)" stroke-opacity="0.6" stroke-width="1" stroke-linecap="round"/></g>
<rect y="880" width="1200" height="120" fill="url(#mist)"/></svg>